<?xml version="1.0" encoding="UTF-8" standalone="no"?>
<svg
   xmlns:dc="http://purl.org/dc/elements/1.1/"
   xmlns:cc="http://creativecommons.org/ns#"
   xmlns:rdf="http://www.w3.org/1999/02/22-rdf-syntax-ns#"
   xmlns:svg="http://www.w3.org/2000/svg"
   xmlns="http://www.w3.org/2000/svg"
   viewBox="0 0 480 288"
   height="288"
   width="480"
   xml:space="preserve"
   id="svg2"
   version="1.1"><metadata
     id="metadata8"><rdf:RDF><cc:Work
         rdf:about=""><dc:format>image/svg+xml</dc:format><dc:type
           rdf:resource="http://purl.org/dc/dcmitype/StillImage" /></cc:Work></rdf:RDF></metadata><defs
     id="defs6"><clipPath
       id="clipPath18"
       clipPathUnits="userSpaceOnUse"><path
         id="path16"
         d="M 0,216 H 360 V 0 H 0 Z" /></clipPath></defs><g
     transform="matrix(1.3333333,0,0,-1.3333333,0,288)"
     id="g10"><g
       id="g12"><g
         clip-path="url(#clipPath18)"
         id="g14"><g
           transform="translate(77.5801,45.3936)"
           id="g20"><path
             id="path22"
             style="fill:#f14a1f;fill-opacity:1;fill-rule:nonzero;stroke:none"
             d="m 0,0 c -4.931,1.891 -9.63,3.913 -14.066,6.061 -29.402,14.224 -47.165,33.719 -47.117,54.71 -0.025,11.026 4.87,21.638 13.777,31.292 0.011,0.051 0.016,0.102 0.028,0.153 0.285,1.279 0.748,2.552 1.387,3.817 0.618,1.221 1.384,2.418 2.283,3.592 C -56.56,88.204 -63.968,75.005 -63.997,60.771 -63.951,38.044 -45.093,17.957 -15.292,3.528 -9.918,0.929 -4.175,-1.488 1.886,-3.708 1.548,-3.248 1.229,-2.762 0.948,-2.226 0.587,-1.534 0.272,-0.791 0,0" /></g><g
           transform="translate(294.8516,163.4102)"
           id="g24"><path
             id="path26"
             style="fill:#f14a1f;fill-opacity:1;fill-rule:nonzero;stroke:none"
             d="M 0,0 C -29.854,14.444 -70.926,23.326 -116.284,23.331 -161.64,23.326 -202.711,14.444 -232.564,0 c -4.445,-2.152 -8.64,-4.433 -12.572,-6.826 0.563,0.162 1.106,0.284 1.627,0.366 1.734,0.27 3.187,0.226 4.366,-0.124 2.501,1.393 5.103,2.746 7.806,4.053 18.345,8.882 41.133,15.667 66.628,19.505 15.399,2.568 31.857,3.961 48.964,3.962 21.531,-0.001 42.038,-2.202 60.692,-6.186 20.336,-3.996 38.613,-9.915 53.828,-17.281 29.403,-14.226 47.163,-33.721 47.118,-54.715 0.045,-20.99 -17.715,-40.485 -47.118,-54.71 -2.736,-1.325 -5.573,-2.603 -8.502,-3.831 -27.83,-13.06 -65.071,-21.014 -106.018,-21.018 -31.18,0.003 -60.211,4.618 -84.577,12.584 -1.175,-0.504 -2.387,-0.885 -3.64,-1.132 -0.15,-0.029 -0.291,-0.043 -0.439,-0.069 25.501,-7.855 55.714,-12.391 88.117,-12.394 45.358,0.003 86.43,8.885 116.284,23.328 29.803,14.428 48.658,34.515 48.706,57.242 C 48.658,-34.516 29.803,-14.427 0,0" /></g><g
           transform="translate(235.2363,85.2266)"
           id="g28"><path
             id="path30"
             style="fill:#f1491c;fill-opacity:1;fill-rule:nonzero;stroke:none"
             d="m 0,0 c -0.232,0.631 -0.44,1.276 -0.625,1.938 -0.184,0.661 -0.337,1.303 -0.46,1.929 -0.153,0.782 -0.26,1.63 -0.317,2.547 -0.059,0.914 -0.065,1.857 -0.019,2.827 0.046,0.97 0.143,1.943 0.289,2.919 0.147,0.975 0.35,1.903 0.611,2.778 C -1.265,14.387 -1.955,13.714 -2.59,12.919 -3.226,12.124 -3.79,11.245 -4.284,10.281 -4.779,9.318 -5.199,8.291 -5.547,7.203 -5.895,6.112 -6.154,4.995 -6.329,3.852 -6.504,2.708 -6.586,1.558 -6.575,0.402 c 0.011,-1.154 0.124,-2.279 0.339,-3.374 0.192,-0.976 0.433,-1.774 0.724,-2.393 0.291,-0.62 0.612,-1.096 0.96,-1.426 0.35,-0.331 0.712,-0.54 1.088,-0.629 0.375,-0.088 0.747,-0.097 1.11,-0.025 0.483,0.095 0.925,0.273 1.327,0.536 0.402,0.261 0.769,0.579 1.101,0.957 0.331,0.376 0.628,0.796 0.889,1.26 0.26,0.463 0.484,0.944 0.671,1.441 C 1.322,-2.839 1.03,-2.352 0.758,-1.788 0.484,-1.228 0.232,-0.631 0,0" /></g><g
           transform="translate(92.2314,121.2266)"
           id="g32"><path
             id="path34"
             style="fill:#f1491c;fill-opacity:1;fill-rule:nonzero;stroke:none"
             d="m 0,0 c 0.228,-0.542 0.487,-0.96 0.775,-1.256 0.288,-0.296 0.592,-0.488 0.912,-0.576 0.32,-0.089 0.638,-0.108 0.953,-0.06 0.417,0.065 0.802,0.203 1.156,0.414 0.353,0.211 0.68,0.472 0.977,0.785 0.298,0.311 0.567,0.661 0.807,1.051 0.239,0.39 0.447,0.793 0.624,1.214 C 5.951,1.936 5.717,2.364 5.502,2.857 5.287,3.348 5.091,3.869 4.913,4.418 4.734,4.968 4.578,5.529 4.443,6.102 4.308,6.675 4.197,7.232 4.113,7.774 4.008,8.449 3.946,9.181 3.927,9.97 c -0.018,0.787 0.009,1.596 0.081,2.427 0.073,0.831 0.189,1.663 0.347,2.495 0.159,0.833 0.366,1.622 0.62,2.364 C 4.317,16.808 3.702,16.254 3.13,15.594 2.558,14.934 2.042,14.197 1.586,13.387 1.129,12.578 0.733,11.711 0.398,10.787 0.063,9.864 -0.199,8.914 -0.388,7.938 -0.577,6.963 -0.686,5.979 -0.716,4.986 -0.747,3.996 -0.688,3.026 -0.54,2.08 -0.409,1.234 -0.229,0.542 0,0" /></g><g
           transform="translate(155.2656,76.8359)"
           id="g36"><path
             id="path38"
             style="fill:#f1491c;fill-opacity:1;fill-rule:nonzero;stroke:none"
             d="M 0,0 C 0.304,0.587 0.47,1.188 0.499,1.803 0.526,2.417 0.481,3.023 0.364,3.623 0.197,4.47 -0.078,5.096 -0.462,5.501 -0.846,5.905 -1.279,6.062 -1.761,5.967 -2.035,5.913 -2.33,5.676 -2.646,5.255 -2.963,4.834 -3.242,4.241 -3.484,3.476 -3.727,2.711 -3.898,1.777 -3.999,0.676 c -0.102,-1.103 -0.087,-2.366 0.043,-3.787 1.082,0.415 1.937,0.89 2.562,1.425 C -0.769,-1.149 -0.304,-0.588 0,0" /></g><g
           transform="translate(318.4717,108.916)"
           id="g40"><path
             id="path42"
             style="fill:#f1491c;fill-opacity:1;fill-rule:nonzero;stroke:none"
             d="M 0,0 C 0.304,0.587 0.47,1.188 0.498,1.803 0.525,2.417 0.48,3.023 0.363,3.623 0.196,4.47 -0.078,5.095 -0.462,5.5 -0.847,5.905 -1.28,6.061 -1.762,5.966 -2.035,5.913 -2.331,5.675 -2.647,5.255 -2.963,4.833 -3.242,4.241 -3.484,3.476 -3.727,2.711 -3.898,1.777 -4,0.675 c -0.102,-1.102 -0.087,-2.366 0.044,-3.786 1.082,0.415 1.936,0.89 2.561,1.426 C -0.769,-1.149 -0.305,-0.587 0,0" /></g><g
           transform="translate(81.2495,77.4092)"
           id="g44"><path
             id="path46"
             style="fill:#f1491c;fill-opacity:1;fill-rule:nonzero;stroke:none"
             d="m 0,0 c 0.485,1.772 0.906,3.389 1.264,4.847 0.357,1.457 0.615,2.745 0.775,3.866 0.158,1.12 0.168,2.039 0.027,2.756 C 1.969,11.964 1.86,12.358 1.742,12.653 1.623,12.948 1.486,13.164 1.33,13.303 1.173,13.44 0.996,13.519 0.796,13.533 0.597,13.548 0.366,13.53 0.105,13.479 -0.273,13.405 -0.768,13.145 -1.378,12.7 -1.989,12.255 -2.639,11.684 -3.329,10.986 -4.018,10.289 -4.705,9.488 -5.387,8.583 -6.07,7.677 -6.663,6.729 -7.166,5.737 -7.669,4.744 -8.04,3.737 -8.279,2.716 -8.52,1.694 -8.545,0.708 -8.359,-0.242 c 0.131,-0.665 0.346,-1.259 0.645,-1.781 0.299,-0.524 0.722,-1.001 1.268,-1.436 0.547,-0.435 1.224,-0.832 2.033,-1.193 0.811,-0.363 1.791,-0.714 2.943,-1.056 C -0.975,-3.677 -0.484,-1.774 0,0" /></g><g
           transform="translate(203.583,148.4639)"
           id="g48"><path
             id="path50"
             style="fill:#f1491c;fill-opacity:1;fill-rule:nonzero;stroke:none"
             d="M 0,0 C 0.28,0.494 0.443,1.004 0.488,1.531 0.533,2.058 0.516,2.579 0.436,3.098 0.321,3.83 0.106,4.377 -0.21,4.738 -0.525,5.098 -0.892,5.247 -1.309,5.182 -1.546,5.145 -1.808,4.95 -2.093,4.6 -2.379,4.25 -2.639,3.75 -2.873,3.103 -3.106,2.454 -3.286,1.658 -3.41,0.716 c -0.124,-0.944 -0.154,-2.027 -0.091,-3.252 0.942,0.32 1.691,0.699 2.246,1.138 C -0.699,-0.96 -0.281,-0.494 0,0" /></g><g
           transform="translate(39.8164,140.9209)"
           id="g52"><path
             id="path54"
             style="fill:#f1491c;fill-opacity:1;fill-rule:nonzero;stroke:none"
             d="m 0,0 c -0.221,-0.464 -0.416,-0.935 -0.561,-1.417 -0.251,-0.835 -0.312,-1.665 -0.184,-2.487 0.09,-0.575 0.245,-1.096 0.468,-1.563 0.223,-0.468 0.548,-0.906 0.975,-1.312 0.427,-0.407 0.97,-0.784 1.631,-1.131 0.659,-0.347 1.478,-0.687 2.452,-1.021 0.493,1.728 0.993,3.334 1.5,4.821 0.508,1.487 0.955,2.841 1.342,4.062 C 8.01,1.172 8.311,2.249 8.522,3.183 8.735,4.116 8.793,4.892 8.696,5.512 8.604,6.11 8.437,6.496 8.196,6.671 8.055,6.774 7.867,6.822 7.655,6.841 4.89,4.636 2.333,2.354 0,0" /></g><g
           transform="translate(220.5332,144.6182)"
           id="g56"><path
             id="path58"
             style="fill:#f1491c;fill-opacity:1;fill-rule:nonzero;stroke:none"
             d="m 0,0 c -0.219,-0.859 -0.566,-1.772 -1.045,-2.742 -0.477,-0.969 -1.068,-1.973 -1.772,-3.012 -0.704,-1.038 -1.492,-2.061 -2.363,-3.067 -0.87,-1.008 -1.81,-1.97 -2.822,-2.89 -1.012,-0.918 -2.059,-1.748 -3.144,-2.489 -1.084,-0.741 -2.198,-1.363 -3.336,-1.869 -1.139,-0.507 -2.272,-0.847 -3.399,-1.023 -1.69,-0.262 -3.199,-0.232 -4.524,0.092 -1.326,0.325 -2.475,0.921 -3.448,1.792 -0.972,0.87 -1.768,1.998 -2.388,3.385 -0.098,0.219 -0.184,0.454 -0.274,0.684 -0.392,-0.574 -0.798,-1.146 -1.227,-1.715 -0.795,-1.052 -1.639,-2.063 -2.532,-3.034 -0.894,-0.97 -1.794,-1.837 -2.703,-2.601 -0.909,-0.765 -1.804,-1.401 -2.689,-1.908 -0.885,-0.508 -1.728,-0.823 -2.528,-0.947 -2.107,-0.328 -3.804,-0.105 -5.09,0.671 -1.287,0.775 -2.084,2.148 -2.391,4.119 -0.119,0.767 -0.158,1.571 -0.116,2.415 0.042,0.843 0.124,1.687 0.247,2.531 0.122,0.844 0.271,1.672 0.444,2.485 0.174,0.812 0.334,1.564 0.48,2.256 0.146,0.693 0.264,1.307 0.353,1.846 0.089,0.54 0.111,0.956 0.065,1.249 -0.065,0.417 -0.305,0.725 -0.723,0.926 -0.419,0.201 -1.035,0.398 -1.851,0.595 -0.381,-1.109 -0.746,-2.116 -1.096,-3.019 -0.35,-0.903 -0.706,-1.752 -1.067,-2.546 -0.361,-0.795 -0.739,-1.553 -1.135,-2.273 -0.397,-0.719 -0.831,-1.444 -1.306,-2.177 -0.44,-0.068 -0.843,-0.056 -1.209,0.037 -0.367,0.094 -0.687,0.246 -0.963,0.457 -0.275,0.211 -0.5,0.47 -0.676,0.778 -0.174,0.306 -0.289,0.64 -0.345,1.002 -0.044,0.281 -0.052,0.575 -0.025,0.88 0.028,0.303 0.113,0.588 0.257,0.853 0.351,0.712 0.677,1.378 0.979,1.996 0.302,0.618 0.588,1.231 0.857,1.839 0.269,0.607 0.515,1.232 0.738,1.871 0.224,0.641 0.426,1.34 0.609,2.095 -0.331,0.271 -0.636,0.62 -0.915,1.043 -0.28,0.424 -0.471,0.969 -0.575,1.634 -0.126,0.811 -0.073,1.691 0.16,2.64 0.234,0.948 0.588,1.903 1.061,2.865 0.473,0.964 1.04,1.896 1.701,2.802 0.662,0.904 1.36,1.721 2.096,2.447 0.734,0.726 1.475,1.329 2.22,1.809 0.745,0.479 1.444,0.77 2.097,0.871 0.586,0.092 1.132,0.108 1.638,0.048 0.506,-0.061 0.949,-0.19 1.333,-0.39 0.383,-0.201 0.698,-0.469 0.948,-0.805 0.248,-0.337 0.41,-0.741 0.483,-1.214 0.077,-0.496 0.081,-0.969 0.013,-1.418 -0.764,-0.582 -1.45,-1.196 -2.059,-1.844 -0.609,-0.649 -1.084,-1.398 -1.424,-2.247 0.414,-0.144 0.937,-0.282 1.57,-0.415 0.632,-0.132 1.26,-0.236 1.884,-0.312 1.06,-0.136 1.933,-0.293 2.619,-0.475 0.686,-0.182 1.233,-0.394 1.64,-0.637 0.406,-0.242 0.701,-0.522 0.884,-0.84 0.182,-0.318 0.305,-0.686 0.371,-1.103 0.108,-0.699 0.057,-1.497 -0.155,-2.397 -0.213,-0.897 -0.514,-1.949 -0.904,-3.151 -0.271,-0.851 -0.524,-1.707 -0.759,-2.569 -0.236,-0.862 -0.431,-1.68 -0.588,-2.454 -0.157,-0.775 -0.269,-1.486 -0.334,-2.13 -0.068,-0.646 -0.068,-1.182 -0.001,-1.611 0.077,-0.496 0.221,-0.885 0.433,-1.17 0.211,-0.285 0.548,-0.39 1.01,-0.318 0.326,0.051 0.707,0.227 1.138,0.531 0.431,0.304 0.899,0.712 1.403,1.223 0.503,0.511 1.031,1.119 1.586,1.822 0.554,0.704 1.105,1.48 1.654,2.326 0.366,0.564 0.726,1.165 1.082,1.784 -0.015,0.821 0.011,1.647 0.091,2.476 0.172,1.787 0.513,3.523 1.025,5.207 0.51,1.683 1.166,3.275 1.966,4.773 0.799,1.497 1.686,2.827 2.66,3.989 0.973,1.162 2.01,2.114 3.114,2.856 1.101,0.743 2.216,1.203 3.343,1.378 2.388,0.372 4.31,0.074 5.765,-0.895 1.455,-0.967 2.371,-2.662 2.748,-5.085 0.227,-1.454 0.214,-2.856 -0.037,-4.205 -0.253,-1.35 -0.806,-2.635 -1.659,-3.859 -0.855,-1.224 -2.037,-2.372 -3.55,-3.443 -1.513,-1.073 -3.409,-2.064 -5.692,-2.973 0.121,-0.778 0.276,-1.461 0.467,-2.049 0.189,-0.587 0.436,-1.066 0.742,-1.433 0.305,-0.368 0.692,-0.626 1.159,-0.773 0.467,-0.147 1.039,-0.167 1.715,-0.061 1.172,0.182 2.377,0.614 3.615,1.297 1.238,0.684 2.439,1.566 3.605,2.648 1.165,1.082 2.262,2.335 3.292,3.76 1.032,1.423 1.919,2.967 2.665,4.629 0.418,0.054 0.802,0.037 1.151,-0.054 C -1.314,3.98 -1.012,3.849 -0.754,3.676 -0.495,3.501 -0.286,3.288 -0.126,3.037 0.034,2.785 0.136,2.524 0.178,2.253 0.277,1.612 0.219,0.859 0,0 m -60.182,14.412 c -0.2,-1.311 -0.538,-2.585 -1.015,-3.82 -0.477,-1.235 -1.069,-2.403 -1.775,-3.505 -0.705,-1.103 -1.467,-2.079 -2.288,-2.928 -0.82,-0.848 -1.667,-1.546 -2.539,-2.092 -0.874,-0.546 -1.722,-0.881 -2.544,-1.009 -1.082,-0.169 -1.932,-0.041 -2.553,0.38 -0.619,0.424 -0.998,1.075 -1.135,1.954 -0.061,0.394 -0.062,0.844 -0.002,1.35 0.767,0.558 1.493,1.179 2.177,1.862 0.685,0.684 1.279,1.368 1.784,2.052 0.506,0.685 0.893,1.343 1.165,1.973 0.271,0.631 0.371,1.172 0.301,1.622 -0.06,0.384 -0.175,0.753 -0.345,1.107 -0.171,0.355 -0.419,0.688 -0.744,1.001 -0.326,0.314 -0.735,0.598 -1.225,0.857 -0.49,0.258 -1.089,0.472 -1.796,0.638 -0.263,0.351 -0.468,0.724 -0.616,1.117 -0.147,0.392 -0.25,0.78 -0.31,1.163 -0.131,0.845 -0.111,1.656 0.063,2.433 0.173,0.777 0.48,1.477 0.92,2.1 0.439,0.623 1.007,1.146 1.702,1.572 0.696,0.426 1.5,0.71 2.413,0.852 1.093,0.17 2.112,0.109 3.058,-0.182 0.945,-0.292 1.784,-0.75 2.516,-1.374 0.733,-0.625 1.339,-1.388 1.82,-2.288 0.48,-0.901 0.803,-1.881 0.968,-2.94 0.2,-1.285 0.2,-2.582 0,-3.895 m -102.251,-3.798 c 0.595,-0.742 1.008,-1.679 1.192,-2.862 0.069,-0.439 0.113,-0.874 0.134,-1.304 0.021,-0.429 -0.005,-0.952 -0.076,-1.57 -0.071,-0.617 -0.204,-1.379 -0.397,-2.287 -0.193,-0.906 -0.467,-2.057 -0.822,-3.452 -0.354,-1.394 -0.804,-3.085 -1.348,-5.074 -0.544,-1.989 -1.201,-4.372 -1.97,-7.146 -0.397,-1.446 -0.71,-2.649 -0.935,-3.608 -0.226,-0.958 -0.387,-1.763 -0.482,-2.412 -0.094,-0.65 -0.14,-1.191 -0.137,-1.624 0.004,-0.431 0.037,-0.844 0.098,-1.239 0.119,-0.766 0.413,-1.319 0.882,-1.655 0.468,-0.337 1.033,-0.453 1.698,-0.35 0.744,0.116 1.511,0.345 2.3,0.688 0.789,0.342 1.564,0.779 2.323,1.312 0.76,0.535 1.494,1.16 2.201,1.876 0.708,0.716 1.347,1.506 1.918,2.367 -0.143,3.659 -0.23,6.956 -0.259,9.89 -0.03,2.933 0.008,5.543 0.113,7.834 0.105,2.29 0.279,4.268 0.522,5.934 0.244,1.664 0.564,3.05 0.963,4.156 0.399,1.107 0.883,1.95 1.451,2.53 0.567,0.578 1.223,0.926 1.967,1.042 0.585,0.091 1.187,0.083 1.804,-0.023 0.616,-0.105 1.218,-0.281 1.804,-0.525 0.586,-0.242 1.142,-0.548 1.666,-0.918 0.525,-0.367 0.994,-0.762 1.405,-1.183 0.412,-0.42 0.752,-0.86 1.02,-1.321 0.268,-0.461 0.436,-0.91 0.504,-1.35 0.095,-0.608 0.117,-1.25 0.066,-1.921 -0.052,-0.672 -0.175,-1.423 -0.368,-2.255 -0.193,-0.833 -0.462,-1.778 -0.805,-2.835 -0.344,-1.057 -0.767,-2.272 -1.269,-3.642 -0.039,-1.45 -0.088,-2.917 -0.145,-4.403 -0.057,-1.487 -0.114,-2.953 -0.172,-4.399 -0.058,-1.446 -0.118,-2.844 -0.179,-4.191 -0.061,-1.349 -0.121,-2.613 -0.179,-3.795 -0.059,-1.18 -0.115,-2.25 -0.167,-3.212 -0.053,-0.958 -0.097,-1.766 -0.134,-2.418 -0.085,-1.086 -0.187,-2.213 -0.305,-3.38 -0.119,-1.167 -0.248,-2.228 -0.387,-3.185 0.991,0.974 1.935,1.975 2.831,3.002 0.895,1.029 1.757,2.127 2.586,3.294 0.828,1.169 1.628,2.423 2.4,3.767 0.189,0.329 0.374,0.691 0.561,1.035 0.007,0.161 0.006,0.323 0.016,0.484 0.111,1.882 0.385,3.682 0.822,5.4 0.436,1.718 1.02,3.322 1.752,4.808 0.733,1.487 1.57,2.804 2.511,3.949 0.941,1.144 1.976,2.082 3.103,2.811 1.127,0.73 2.299,1.189 3.516,1.379 0.451,0.07 0.923,0.093 1.418,0.066 0.495,-0.027 0.958,-0.129 1.389,-0.304 0.431,-0.175 0.806,-0.437 1.127,-0.785 0.32,-0.348 0.53,-0.809 0.631,-1.382 0.391,0.672 0.85,1.227 1.377,1.668 0.524,0.439 1.12,0.712 1.785,0.815 0.71,0.111 1.348,0.091 1.914,-0.057 0.565,-0.149 1.054,-0.402 1.468,-0.758 0.413,-0.357 0.752,-0.807 1.015,-1.349 0.263,-0.542 0.447,-1.151 0.553,-1.827 0.086,-0.552 0.141,-1.164 0.164,-1.836 0.024,-0.67 0.019,-1.379 -0.015,-2.123 -0.035,-0.743 -0.089,-1.511 -0.162,-2.302 -0.073,-0.79 -0.164,-1.577 -0.273,-2.362 -0.108,-0.785 -0.231,-1.554 -0.367,-2.308 -0.137,-0.755 -0.286,-1.467 -0.447,-2.138 0.129,-0.084 0.318,-0.165 0.566,-0.241 0.248,-0.077 0.548,-0.088 0.897,-0.034 1.003,0.157 1.955,0.734 2.855,1.735 0.708,0.785 1.4,1.896 2.078,3.309 -0.189,0.356 -0.345,0.716 -0.459,1.08 -0.218,0.699 -0.382,1.398 -0.49,2.097 -0.113,0.721 -0.064,1.542 0.144,2.464 0.209,0.921 0.533,1.875 0.975,2.861 0.44,0.986 0.981,1.959 1.623,2.919 0.641,0.959 1.336,1.832 2.085,2.618 0.749,0.786 1.532,1.445 2.35,1.977 0.818,0.531 1.632,0.858 2.443,0.985 0.541,0.084 1.025,0.111 1.451,0.079 0.426,-0.032 0.794,-0.133 1.104,-0.304 0.309,-0.171 0.565,-0.423 0.766,-0.756 0.202,-0.331 0.343,-0.756 0.424,-1.274 0.174,-1.117 -0.025,-2.757 -0.593,-4.923 -0.569,-2.166 -1.518,-4.837 -2.848,-8.01 -0.153,-1.316 -0.251,-2.483 -0.295,-3.5 -0.043,-1.016 -0.022,-1.801 0.064,-2.353 0.088,-0.563 0.267,-0.988 0.536,-1.276 0.27,-0.287 0.647,-0.392 1.132,-0.316 0.293,0.045 0.627,0.195 1.003,0.45 0.376,0.254 0.761,0.565 1.154,0.932 0.392,0.368 0.774,0.77 1.144,1.209 0.37,0.438 0.702,0.864 0.996,1.28 0.294,1.963 0.53,3.765 0.707,5.408 0.177,1.643 0.3,3.212 0.367,4.705 0.067,1.495 0.081,2.948 0.04,4.361 -0.041,1.413 -0.138,2.87 -0.291,4.369 0.279,0.506 0.669,0.908 1.172,1.204 0.502,0.297 1.012,0.487 1.531,0.567 0.968,0.151 1.886,0.133 2.752,-0.055 0.866,-0.188 1.638,-0.498 2.318,-0.929 0.678,-0.431 1.239,-0.959 1.683,-1.582 0.443,-0.624 0.72,-1.291 0.831,-2.001 0.049,-0.315 0.08,-0.647 0.094,-0.998 0.015,-0.35 0.007,-0.744 -0.023,-1.181 -0.031,-0.436 -0.088,-0.933 -0.175,-1.49 -0.087,-0.556 -0.205,-1.203 -0.356,-1.942 -0.135,-0.691 -0.297,-1.446 -0.487,-2.266 -0.19,-0.82 -0.386,-1.653 -0.589,-2.498 -0.204,-0.846 -0.4,-1.675 -0.591,-2.49 -0.19,-0.815 -0.357,-1.565 -0.498,-2.251 -0.141,-0.686 -0.248,-1.282 -0.319,-1.789 -0.071,-0.508 -0.089,-0.868 -0.056,-1.082 0.07,-0.451 0.206,-0.733 0.408,-0.846 0.202,-0.112 0.445,-0.146 0.726,-0.102 0.395,0.061 0.869,0.316 1.422,0.766 0.553,0.45 1.17,1.102 1.85,1.958 0.681,0.857 1.414,1.927 2.202,3.209 0.787,1.282 1.612,2.787 2.474,4.514 0.361,0.056 0.721,0.058 1.082,0.004 0.36,-0.054 0.688,-0.156 0.982,-0.306 0.295,-0.15 0.541,-0.343 0.74,-0.577 0.198,-0.235 0.321,-0.511 0.37,-0.826 0.097,-0.62 0.01,-1.381 -0.259,-2.283 -0.27,-0.901 -0.675,-1.876 -1.215,-2.924 -0.541,-1.048 -1.19,-2.13 -1.945,-3.246 -0.756,-1.116 -1.566,-2.192 -2.433,-3.226 -0.699,-0.848 -1.425,-1.651 -2.178,-2.409 -0.754,-0.757 -1.517,-1.434 -2.29,-2.027 -0.773,-0.593 -1.543,-1.083 -2.308,-1.467 -0.766,-0.384 -1.515,-0.634 -2.247,-0.748 -0.71,-0.111 -1.356,-0.145 -1.94,-0.103 -0.584,0.041 -1.102,0.2 -1.555,0.476 -0.453,0.276 -0.828,0.687 -1.127,1.236 -0.299,0.548 -0.519,1.272 -0.659,2.174 -0.075,0.484 -0.122,1.028 -0.141,1.631 -0.019,0.603 -0.017,1.281 0.003,2.035 -0.588,-1.708 -1.252,-3.209 -1.99,-4.507 -0.739,-1.3 -1.514,-2.4 -2.325,-3.306 -0.811,-0.905 -1.639,-1.611 -2.484,-2.118 -0.844,-0.507 -1.655,-0.821 -2.433,-0.942 -1.014,-0.158 -1.87,-0.144 -2.569,0.042 -0.698,0.185 -1.279,0.525 -1.742,1.018 -0.464,0.493 -0.832,1.135 -1.104,1.924 -0.274,0.788 -0.491,1.7 -0.652,2.738 -0.081,0.518 -0.119,1.159 -0.117,1.92 10e-4,0.161 0.011,0.343 0.016,0.511 -0.628,-0.559 -1.306,-1.061 -2.056,-1.477 -0.85,-0.474 -1.765,-0.787 -2.745,-0.939 -0.631,-0.098 -1.163,-0.126 -1.597,-0.083 -0.434,0.041 -0.862,0.156 -1.283,0.345 -0.647,-1.255 -1.346,-2.385 -2.096,-3.39 -0.749,-1.007 -1.562,-1.881 -2.439,-2.622 -0.878,-0.743 -1.827,-1.352 -2.849,-1.829 -1.023,-0.477 -2.142,-0.81 -3.359,-0.999 -1.229,-0.191 -2.41,-0.164 -3.545,0.079 -1.134,0.246 -2.161,0.721 -3.079,1.426 -0.917,0.706 -1.702,1.654 -2.356,2.846 -0.269,0.49 -0.496,1.035 -0.699,1.611 -0.273,-0.42 -0.535,-0.836 -0.835,-1.262 -0.964,-1.374 -1.994,-2.723 -3.092,-4.048 -1.098,-1.325 -2.231,-2.595 -3.397,-3.81 -1.168,-1.214 -2.305,-2.306 -3.412,-3.275 -0.323,-1.113 -0.715,-2.212 -1.175,-3.299 -0.459,-1.087 -0.984,-2.127 -1.574,-3.12 -0.591,-0.992 -1.245,-1.919 -1.966,-2.782 -0.719,-0.862 -1.5,-1.629 -2.341,-2.302 -0.843,-0.674 -1.747,-1.239 -2.714,-1.696 -0.968,-0.455 -1.993,-0.768 -3.075,-0.937 -0.529,-0.082 -1.098,-0.104 -1.703,-0.067 -0.607,0.039 -1.214,0.138 -1.821,0.297 -0.608,0.159 -1.196,0.379 -1.765,0.66 -0.569,0.282 -1.086,0.615 -1.55,1.006 -0.465,0.389 -0.854,0.836 -1.17,1.341 -0.315,0.505 -0.52,1.062 -0.615,1.671 -0.11,0.709 0.057,1.488 0.502,2.338 0.445,0.847 1.194,1.811 2.25,2.894 1.055,1.081 2.43,2.3 4.123,3.655 1.694,1.353 3.734,2.891 6.12,4.614 0.144,0.635 0.268,1.345 0.369,2.135 0.102,0.789 0.192,1.637 0.271,2.544 0.078,0.906 0.149,1.861 0.212,2.863 0.063,1.004 0.13,2.023 0.199,3.061 -0.736,-1.43 -1.58,-2.736 -2.533,-3.917 -0.953,-1.181 -1.972,-2.217 -3.057,-3.108 -1.084,-0.89 -2.218,-1.617 -3.4,-2.182 -1.181,-0.565 -2.381,-0.943 -3.597,-1.133 -1.331,-0.207 -2.546,-0.179 -3.649,0.082 -1.103,0.261 -2.071,0.717 -2.905,1.366 -0.834,0.649 -1.52,1.475 -2.056,2.477 -0.537,1 -0.906,2.143 -1.106,3.429 -0.097,0.63 -0.159,1.285 -0.184,1.961 -0.024,0.678 -0.009,1.41 0.048,2.198 0.056,0.788 0.152,1.637 0.288,2.546 0.135,0.911 0.315,1.903 0.541,2.976 -1.587,-0.19 -3.12,-0.151 -4.598,0.116 -1.479,0.265 -2.809,0.749 -3.991,1.447 -1.182,0.699 -2.175,1.604 -2.976,2.714 -0.123,0.171 -0.227,0.355 -0.338,0.535 -5.125,-7.816 -7.935,-16.214 -7.95,-25.011 0.038,-22.206 17.829,-41.89 45.978,-56.02 2.643,-1.326 5.38,-2.606 8.205,-3.834 -0.257,0.782 -0.476,1.608 -0.649,2.486 -0.151,0.77 -0.255,1.713 -0.312,2.831 -0.057,1.118 -0.046,2.369 0.035,3.753 0.08,1.382 0.243,2.878 0.489,4.49 0.246,1.611 0.59,3.292 1.031,5.043 -1.837,-0.293 -3.615,-0.321 -5.334,-0.084 -1.718,0.237 -3.278,0.733 -4.679,1.487 -1.4,0.753 -2.588,1.75 -3.563,2.993 -0.976,1.243 -1.632,2.725 -1.97,4.444 -0.279,1.419 -0.308,2.89 -0.085,4.409 0.223,1.519 0.641,3.042 1.254,4.57 0.615,1.527 1.391,3.037 2.33,4.527 0.939,1.491 1.982,2.917 3.129,4.278 1.147,1.364 2.375,2.643 3.684,3.84 1.307,1.199 2.631,2.263 3.971,3.198 1.34,0.932 2.67,1.711 3.989,2.336 1.318,0.625 2.571,1.053 3.758,1.287 1.46,0.287 2.809,0.38 4.047,0.278 1.239,-0.103 2.344,-0.44 3.317,-1.013 0.973,-0.573 1.797,-1.412 2.475,-2.517 0.677,-1.106 1.185,-2.517 1.524,-4.237 0.307,-1.564 0.358,-3.307 0.154,-5.227 -0.204,-1.922 -0.57,-4.091 -1.096,-6.509 -0.526,-2.417 -1.16,-5.112 -1.901,-8.086 -0.742,-2.975 -1.503,-6.298 -2.283,-9.97 -0.26,-1.228 -0.46,-2.343 -0.601,-3.345 -0.142,-1.002 -0.234,-1.923 -0.279,-2.764 -0.045,-0.842 -0.041,-1.619 0.012,-2.332 0.052,-0.714 0.143,-1.403 0.274,-2.067 0.111,-0.561 0.295,-1.073 0.556,-1.536 0.26,-0.463 0.589,-0.848 0.987,-1.155 0.399,-0.308 0.864,-0.521 1.394,-0.64 0.531,-0.119 1.128,-0.113 1.792,0.018 0.703,0.138 1.361,0.44 1.973,0.904 0.612,0.466 1.203,1.073 1.772,1.821 0.57,0.748 1.128,1.626 1.674,2.633 0.547,1.007 1.104,2.128 1.673,3.363 -0.364,1.85 -0.625,3.727 -0.783,5.632 -0.158,1.904 -0.224,3.789 -0.198,5.655 0.025,1.865 0.141,3.684 0.348,5.456 0.205,1.773 0.497,3.454 0.874,5.044 0.378,1.591 0.832,3.063 1.363,4.419 0.532,1.356 1.133,2.547 1.804,3.572 0.671,1.024 1.406,1.862 2.204,2.514 0.799,0.65 1.661,1.067 2.585,1.249 0.859,0.169 1.669,0.198 2.427,0.091 0.758,-0.108 1.434,-0.347 2.028,-0.718 0.594,-0.369 1.098,-0.87 1.512,-1.499 0.415,-0.628 0.709,-1.387 0.883,-2.273 0.438,-2.227 0.559,-4.567 0.366,-7.022 -0.194,-2.453 -0.591,-4.943 -1.19,-7.47 -0.599,-2.527 -1.345,-5.041 -2.24,-7.545 -0.894,-2.503 -1.832,-4.906 -2.812,-7.211 0.331,-0.719 0.677,-1.368 1.042,-1.946 0.363,-0.579 0.748,-1.054 1.153,-1.428 0.404,-0.374 0.832,-0.641 1.284,-0.803 0.451,-0.162 0.923,-0.194 1.419,-0.096 0.833,0.163 1.654,0.578 2.463,1.245 0.809,0.667 1.588,1.537 2.337,2.611 0.75,1.075 1.45,2.325 2.103,3.752 0.653,1.428 1.236,2.985 1.751,4.668 0.514,1.685 0.945,3.467 1.292,5.349 0.347,1.881 0.589,3.813 0.727,5.796 0.138,1.982 0.156,3.988 0.055,6.019 -0.102,2.031 -0.347,4.035 -0.737,6.016 -0.22,1.119 -0.531,2.135 -0.933,3.044 -0.401,0.908 -0.929,1.782 -1.58,2.622 -0.653,0.84 -1.451,1.681 -2.395,2.523 -0.943,0.842 -2.074,1.758 -3.391,2.745 -0.013,1.784 0.54,3.224 1.657,4.324 1.117,1.098 2.658,1.842 4.626,2.228 1.746,0.344 3.35,0.273 4.812,-0.21 1.462,-0.485 2.755,-1.265 3.881,-2.344 1.125,-1.078 2.074,-2.393 2.846,-3.947 0.772,-1.552 1.335,-3.228 1.689,-5.026 0.529,-2.697 0.85,-5.462 0.96,-8.296 0.11,-2.834 0.026,-5.658 -0.253,-8.474 -0.278,-2.815 -0.736,-5.582 -1.373,-8.297 -0.637,-2.717 -1.437,-5.306 -2.4,-7.77 -0.964,-2.462 -2.077,-4.766 -3.342,-6.907 -1.263,-2.145 -2.659,-4.043 -4.189,-5.697 -1.528,-1.653 -3.179,-3.03 -4.952,-4.129 -1.773,-1.1 -3.643,-1.844 -5.611,-2.231 -2.006,-0.393 -3.946,-0.179 -5.82,0.644 -1.873,0.822 -3.567,2.329 -5.08,4.522 -1.016,-1.715 -2.076,-3.225 -3.179,-4.532 -1.103,-1.306 -2.256,-2.43 -3.459,-3.369 -1.202,-0.941 -2.445,-1.702 -3.732,-2.287 -0.118,-0.054 -0.24,-0.1 -0.359,-0.152 24.366,-7.966 53.397,-12.581 84.576,-12.584 40.948,0.004 78.189,7.958 106.019,21.018 1.282,0.601 2.551,1.209 3.792,1.832 24.121,12.109 40.626,28.3 44.881,46.659 -0.339,-0.466 -0.68,-0.931 -1.047,-1.392 -0.967,-1.211 -2.018,-2.375 -3.152,-3.491 -1.133,-1.116 -2.314,-2.13 -3.542,-3.042 -1.229,-0.912 -2.494,-1.687 -3.795,-2.328 -1.301,-0.642 -2.604,-1.091 -3.907,-1.347 -1.954,-0.384 -3.711,-0.417 -5.267,-0.101 -1.558,0.315 -2.922,0.957 -4.094,1.926 -1.171,0.966 -2.148,2.242 -2.934,3.826 -0.131,0.264 -0.249,0.548 -0.369,0.827 -0.502,-0.812 -1.024,-1.624 -1.59,-2.429 -0.898,-1.28 -1.849,-2.512 -2.855,-3.696 -1.005,-1.187 -2.025,-2.252 -3.056,-3.199 -1.031,-0.946 -2.055,-1.74 -3.074,-2.381 -1.018,-0.641 -1.988,-1.05 -2.914,-1.232 -1.186,-0.233 -2.208,-0.299 -3.067,-0.197 -0.859,0.102 -1.588,0.37 -2.188,0.807 -0.601,0.436 -1.088,1.042 -1.463,1.814 -0.375,0.771 -0.67,1.704 -0.886,2.8 -0.173,0.885 -0.249,1.891 -0.228,3.02 0.022,1.128 0.099,2.289 0.229,3.485 0.13,1.196 0.288,2.388 0.475,3.574 0.186,1.188 0.363,2.281 0.531,3.281 0.169,1.001 0.303,1.87 0.403,2.607 0.097,0.736 0.119,1.248 0.062,1.535 -0.125,0.639 -0.507,0.895 -1.145,0.769 -0.183,-0.036 -0.464,-0.207 -0.843,-0.511 -0.38,-0.305 -0.82,-0.753 -1.32,-1.346 -0.5,-0.591 -1.032,-1.339 -1.598,-2.241 -0.568,-0.903 -1.136,-1.973 -1.704,-3.207 0.014,-1.595 0.04,-3.096 0.072,-4.503 0.034,-1.407 0.081,-2.771 0.145,-4.092 0.063,-1.32 0.158,-2.628 0.284,-3.923 0.126,-1.295 0.289,-2.627 0.491,-3.994 -0.157,-0.233 -0.322,-0.448 -0.493,-0.644 -0.171,-0.197 -0.371,-0.367 -0.599,-0.514 -0.228,-0.145 -0.494,-0.276 -0.796,-0.391 -0.302,-0.113 -0.663,-0.21 -1.08,-0.292 -1.121,-0.22 -2.167,-0.3 -3.138,-0.242 -0.973,0.06 -1.844,0.29 -2.614,0.696 -0.769,0.402 -1.422,0.988 -1.959,1.754 -0.536,0.768 -0.935,1.748 -1.197,2.943 -0.15,0.767 -0.244,1.639 -0.28,2.613 -0.036,0.975 -0.031,1.993 0.017,3.06 0.048,1.064 0.136,2.153 0.261,3.267 0.127,1.114 0.272,2.182 0.438,3.202 0.068,0.473 0.141,0.945 0.218,1.413 0.077,0.469 0.143,0.912 0.197,1.328 0.052,0.416 0.089,0.796 0.11,1.138 0.02,0.341 0.012,0.611 -0.026,0.807 -0.07,0.352 -0.197,0.584 -0.38,0.696 -0.185,0.113 -0.441,0.138 -0.766,0.073 -0.183,-0.036 -0.423,-0.171 -0.723,-0.405 -0.298,-0.235 -0.644,-0.612 -1.036,-1.128 -0.392,-0.517 -0.835,-1.192 -1.327,-2.027 -0.492,-0.835 -1.023,-1.869 -1.592,-3.104 0.028,-1.591 0.062,-3.089 0.102,-4.497 0.04,-1.406 0.098,-2.767 0.174,-4.086 0.077,-1.318 0.181,-2.624 0.313,-3.917 0.133,-1.293 0.299,-2.623 0.5,-3.991 -0.156,-0.234 -0.316,-0.438 -0.477,-0.611 -0.163,-0.174 -0.354,-0.323 -0.573,-0.448 -0.218,-0.124 -0.485,-0.234 -0.797,-0.329 -0.314,-0.096 -0.698,-0.188 -1.154,-0.277 -1.121,-0.221 -2.204,-0.18 -3.252,0.12 -1.046,0.303 -2.001,0.802 -2.861,1.499 -0.861,0.697 -1.598,1.549 -2.208,2.56 -0.612,1.01 -1.049,2.11 -1.31,3.305 -0.017,0.088 -0.029,0.186 -0.045,0.276 -0.072,-0.076 -0.133,-0.159 -0.207,-0.234 -0.777,-0.796 -1.649,-1.488 -2.616,-2.078 -0.967,-0.589 -2.016,-0.995 -3.15,-1.217 -0.73,-0.144 -1.348,-0.202 -1.854,-0.172 -0.507,0.029 -1.01,0.143 -1.509,0.343 -0.695,-1.49 -1.456,-2.837 -2.281,-4.042 -0.826,-1.205 -1.731,-2.258 -2.717,-3.163 -0.987,-0.904 -2.063,-1.657 -3.23,-2.258 -1.168,-0.601 -2.455,-1.039 -3.861,-1.317 -1.42,-0.278 -2.796,-0.303 -4.127,-0.07 -1.332,0.231 -2.548,0.736 -3.648,1.515 -1.1,0.779 -2.057,1.845 -2.872,3.201 -0.353,0.589 -0.659,1.244 -0.932,1.946 -0.398,-0.6 -0.818,-1.195 -1.261,-1.789 -0.9,-1.204 -1.876,-2.364 -2.93,-3.478 -1.053,-1.113 -2.15,-2.121 -3.292,-3.022 -1.142,-0.901 -2.317,-1.67 -3.525,-2.307 -1.208,-0.635 -2.418,-1.074 -3.629,-1.311 -1.968,-0.387 -3.717,-0.42 -5.249,-0.098 -1.531,0.32 -2.866,0.968 -4.005,1.943 -1.139,0.973 -2.088,2.254 -2.847,3.844 -0.097,0.205 -0.184,0.428 -0.277,0.642 -0.443,-0.69 -0.907,-1.373 -1.405,-2.047 -0.871,-1.181 -1.805,-2.314 -2.802,-3.403 -0.997,-1.09 -2.023,-2.069 -3.076,-2.939 -1.054,-0.871 -2.115,-1.6 -3.183,-2.189 -1.069,-0.589 -2.104,-0.982 -3.107,-1.179 -1.16,-0.229 -2.168,-0.295 -3.026,-0.199 -0.858,0.095 -1.588,0.347 -2.189,0.758 -0.601,0.408 -1.088,0.975 -1.462,1.701 -0.372,0.725 -0.661,1.609 -0.865,2.651 -0.147,0.747 -0.253,1.582 -0.335,2.473 -0.35,-0.483 -0.704,-0.965 -1.086,-1.444 -0.966,-1.211 -2.016,-2.374 -3.15,-3.49 -1.133,-1.116 -2.315,-2.13 -3.543,-3.042 -1.229,-0.911 -2.493,-1.687 -3.795,-2.328 -1.301,-0.642 -2.604,-1.091 -3.906,-1.347 -1.954,-0.383 -3.711,-0.418 -5.268,-0.101 -1.557,0.315 -2.922,0.958 -4.093,1.926 -1.172,0.966 -2.15,2.242 -2.935,3.827 -0.785,1.585 -1.389,3.459 -1.815,5.622 -0.397,2.018 -0.536,4.072 -0.419,6.158 0.118,2.087 0.434,4.122 0.952,6.105 0.517,1.982 1.206,3.863 2.067,5.643 0.861,1.779 1.831,3.367 2.911,4.763 1.078,1.396 2.241,2.553 3.489,3.468 1.248,0.914 2.523,1.501 3.827,1.756 2.762,0.543 5.011,0.285 6.749,-0.774 1.737,-1.059 2.881,-2.989 3.432,-5.79 0.33,-1.682 0.38,-3.313 0.149,-4.895 -0.23,-1.58 -0.814,-3.101 -1.751,-4.565 -0.937,-1.463 -2.261,-2.853 -3.971,-4.17 -1.71,-1.317 -3.872,-2.558 -6.484,-3.722 0.176,-0.898 0.388,-1.685 0.636,-2.36 0.247,-0.675 0.558,-1.22 0.93,-1.634 0.373,-0.414 0.834,-0.695 1.384,-0.844 0.55,-0.15 1.217,-0.147 1.998,0.006 1.355,0.267 2.737,0.826 4.147,1.678 1.408,0.853 2.765,1.934 4.07,3.246 1.306,1.312 2.524,2.82 3.657,4.526 0.613,0.921 1.171,1.884 1.683,2.882 0.03,1.034 0.06,1.991 0.093,2.856 0.032,0.899 0.046,1.639 0.04,2.221 -0.021,1.348 -0.037,2.824 -0.048,4.424 -0.01,1.603 -0.033,3.231 -0.068,4.89 -0.035,1.657 -0.077,3.3 -0.126,4.927 -0.049,1.628 -0.118,3.144 -0.204,4.549 -0.178,2.765 -0.05,5.3 0.383,7.605 0.433,2.304 1.104,4.317 2.01,6.037 0.907,1.721 2.016,3.12 3.326,4.197 1.311,1.077 2.755,1.769 4.331,2.079 0.861,0.169 1.655,0.216 2.387,0.145 0.731,-0.073 1.384,-0.291 1.955,-0.651 0.571,-0.363 1.059,-0.878 1.462,-1.55 0.402,-0.672 0.703,-1.516 0.903,-2.532 0.115,-0.587 0.187,-1.206 0.213,-1.856 0.027,-0.652 0,-1.378 -0.08,-2.178 -0.079,-0.801 -0.216,-1.703 -0.41,-2.709 -0.195,-1.007 -0.455,-2.161 -0.781,-3.463 -0.327,-1.302 -0.727,-2.778 -1.201,-4.426 -0.474,-1.651 -1.029,-3.512 -1.663,-5.585 -0.084,-1.018 -0.171,-2.128 -0.258,-3.329 -0.089,-1.201 -0.177,-2.444 -0.263,-3.726 -0.086,-1.282 -0.171,-2.574 -0.253,-3.876 -0.083,-1.302 -0.161,-2.572 -0.235,-3.811 -0.075,-1.241 -0.138,-2.416 -0.19,-3.529 -0.052,-1.113 -0.092,-2.116 -0.119,-3.007 -0.028,-0.892 -0.039,-1.649 -0.031,-2.269 0.007,-0.622 0.035,-1.057 0.084,-1.304 0.087,-0.443 0.246,-0.735 0.477,-0.881 0.232,-0.142 0.529,-0.178 0.894,-0.107 0.625,0.123 1.318,0.539 2.078,1.251 0.761,0.71 1.547,1.652 2.357,2.827 0.812,1.175 1.624,2.546 2.44,4.113 0.056,0.108 0.107,0.227 0.162,0.335 -0.053,0.943 -0.06,1.889 -0.005,2.842 0.12,2.109 0.444,4.157 0.974,6.15 0.528,1.991 1.236,3.876 2.126,5.654 0.887,1.778 1.905,3.369 3.049,4.77 1.147,1.404 2.389,2.569 3.729,3.495 1.341,0.926 2.721,1.529 4.141,1.808 1.368,0.269 2.595,0.327 3.68,0.176 1.085,-0.151 2.035,-0.492 2.85,-1.024 0.814,-0.529 1.486,-1.243 2.015,-2.141 0.528,-0.899 0.913,-1.959 1.153,-3.184 0.251,-1.276 0.278,-2.516 0.081,-3.718 -0.196,-1.204 -0.559,-2.286 -1.086,-3.249 -0.528,-0.962 -1.191,-1.772 -1.989,-2.43 -0.798,-0.657 -1.679,-1.081 -2.642,-1.271 -0.887,-0.175 -1.627,-0.18 -2.22,-0.02 -0.592,0.161 -1.099,0.451 -1.52,0.868 0.071,1.151 0.083,2.176 0.035,3.072 -0.047,0.897 -0.122,1.608 -0.225,2.129 -0.113,0.572 -0.307,0.974 -0.582,1.205 -0.275,0.229 -0.537,0.321 -0.784,0.272 -0.378,-0.075 -0.757,-0.471 -1.136,-1.188 -0.381,-0.718 -0.679,-1.693 -0.897,-2.927 -0.218,-1.234 -0.32,-2.695 -0.306,-4.384 0.014,-1.688 0.22,-3.542 0.617,-5.562 0.214,-1.094 0.477,-2.017 0.788,-2.767 0.309,-0.752 0.685,-1.341 1.129,-1.769 0.442,-0.427 0.959,-0.7 1.551,-0.821 0.592,-0.12 1.279,-0.104 2.061,0.05 1.12,0.22 2.274,0.732 3.464,1.534 1.188,0.801 2.343,1.827 3.465,3.076 1.121,1.248 2.184,2.691 3.188,4.331 0.277,0.453 0.522,0.938 0.779,1.411 0.001,0.142 -0.006,0.284 -0.003,0.426 0.041,2.193 0.277,4.3 0.705,6.32 0.429,2.019 1.036,3.911 1.819,5.675 0.783,1.765 1.695,3.334 2.737,4.711 1.043,1.373 2.203,2.512 3.481,3.413 1.277,0.9 2.62,1.49 4.027,1.767 0.52,0.102 1.069,0.148 1.646,0.139 0.578,-0.008 1.121,-0.104 1.63,-0.288 0.51,-0.183 0.959,-0.472 1.348,-0.862 0.387,-0.39 0.653,-0.916 0.797,-1.578 0.424,0.801 0.932,1.467 1.523,2.004 0.593,0.535 1.272,0.88 2.041,1.031 0.821,0.161 1.564,0.168 2.229,0.021 0.665,-0.146 1.246,-0.418 1.743,-0.814 0.497,-0.396 0.912,-0.903 1.243,-1.522 0.331,-0.619 0.573,-1.318 0.728,-2.099 0.125,-0.639 0.217,-1.349 0.276,-2.128 0.059,-0.78 0.085,-1.605 0.08,-2.472 -0.007,-0.867 -0.033,-1.762 -0.082,-2.685 -0.049,-0.922 -0.117,-1.843 -0.208,-2.76 -0.091,-0.918 -0.197,-1.819 -0.321,-2.702 -0.125,-0.884 -0.264,-1.72 -0.421,-2.509 0.153,-0.092 0.377,-0.176 0.669,-0.254 0.293,-0.078 0.641,-0.077 1.045,0.002 1.159,0.229 2.24,0.945 3.241,2.15 0.885,1.065 1.728,2.616 2.531,4.598 -0.423,0.648 -0.769,1.357 -1.024,2.143 -0.276,0.852 -0.492,1.675 -0.649,2.47 -0.156,0.795 -0.149,1.639 0.021,2.532 0.17,0.892 0.461,1.788 0.872,2.688 0.412,0.899 0.927,1.775 1.544,2.627 0.617,0.853 1.294,1.625 2.031,2.318 0.737,0.693 1.518,1.279 2.343,1.76 0.826,0.48 1.649,0.8 2.471,0.962 1.16,0.228 2.073,0.141 2.741,-0.262 0.668,-0.404 1.121,-1.211 1.359,-2.423 0.097,-0.496 0.166,-1.053 0.207,-1.674 0.041,-0.621 0.04,-1.322 -0.003,-2.102 -0.043,-0.779 -0.136,-1.646 -0.28,-2.603 -0.143,-0.955 -0.353,-2.006 -0.628,-3.157 0.962,2.814 1.908,5.145 2.838,6.993 0.929,1.846 1.847,3.339 2.753,4.478 0.905,1.14 1.804,1.974 2.693,2.509 0.891,0.533 1.772,0.885 2.645,1.056 0.756,0.149 1.45,0.161 2.084,0.035 0.634,-0.126 1.19,-0.362 1.671,-0.706 0.48,-0.346 0.882,-0.785 1.203,-1.317 0.32,-0.532 0.547,-1.131 0.678,-1.795 0.101,-0.521 0.191,-1.041 0.266,-1.561 0.074,-0.521 0.107,-1.093 0.093,-1.717 -0.012,-0.625 -0.079,-1.332 -0.202,-2.121 -0.122,-0.788 -0.329,-1.712 -0.622,-2.771 1.157,2.786 2.26,5.16 3.308,7.126 1.048,1.965 2.063,3.585 3.044,4.861 0.98,1.274 1.926,2.242 2.839,2.902 0.912,0.659 1.805,1.075 2.679,1.247 0.924,0.182 1.762,0.177 2.509,-0.014 0.748,-0.191 1.4,-0.514 1.956,-0.965 0.555,-0.454 1.014,-1.015 1.377,-1.688 0.362,-0.674 0.62,-1.401 0.774,-2.183 0.204,-1.042 0.264,-2.29 0.177,-3.741 -0.087,-1.451 -0.329,-3.096 -0.726,-4.932 -0.119,-0.633 -0.267,-1.356 -0.446,-2.169 -0.179,-0.814 -0.357,-1.659 -0.536,-2.54 -0.179,-0.882 -0.356,-1.77 -0.531,-2.663 -0.177,-0.894 -0.324,-1.732 -0.441,-2.512 -0.118,-0.781 -0.2,-1.478 -0.249,-2.089 -0.049,-0.612 -0.041,-1.088 0.026,-1.427 0.087,-0.442 0.243,-0.733 0.466,-0.872 0.223,-0.138 0.518,-0.173 0.883,-0.101 0.364,0.072 0.89,0.443 1.577,1.113 0.688,0.669 1.47,1.614 2.346,2.835 0.876,1.223 1.815,2.708 2.817,4.462 0.244,0.426 0.487,0.866 0.73,1.319 -0.052,0.924 -0.059,1.854 -0.006,2.791 0.118,2.087 0.436,4.122 0.952,6.105 0.518,1.982 1.207,3.863 2.068,5.643 0.861,1.779 1.831,3.367 2.911,4.763 1.078,1.396 2.242,2.553 3.489,3.467 1.248,0.915 2.522,1.501 3.826,1.757 2.762,0.543 5.012,0.285 6.749,-0.774 1.737,-1.059 2.882,-2.989 3.432,-5.79 0.331,-1.682 0.381,-3.313 0.15,-4.894 -0.231,-1.581 -0.814,-3.103 -1.752,-4.566 -0.936,-1.463 -2.261,-2.852 -3.971,-4.17 -1.708,-1.317 -3.871,-2.557 -6.484,-3.722 0.177,-0.898 0.389,-1.685 0.637,-2.36 0.248,-0.675 0.557,-1.221 0.93,-1.634 0.372,-0.414 0.834,-0.695 1.383,-0.844 0.551,-0.15 1.217,-0.147 1.999,0.006 1.355,0.267 2.737,0.826 4.146,1.678 1.408,0.853 2.765,1.934 4.071,3.246 1.305,1.312 2.524,2.821 3.657,4.525 1.038,1.563 1.926,3.241 2.677,5.026 -1.995,20.596 -19.305,38.8 -45.778,52.09 -14.021,7.035 -30.663,12.722 -49.118,16.662 -18.655,3.984 -39.162,6.185 -60.693,6.186 -17.106,-0.001 -33.565,-1.394 -48.964,-3.962 -23.154,-3.863 -43.91,-10.39 -60.842,-18.886 -3.947,-1.981 -7.681,-4.075 -11.2,-6.266" /></g><g
           transform="translate(76.8369,72.7568)"
           id="g60"><path
             id="path62"
             style="fill:#ffffff;fill-opacity:1;fill-rule:nonzero;stroke:none"
             d="m 0,0 c -0.809,0.361 -1.487,0.759 -2.033,1.193 -0.546,0.435 -0.969,0.912 -1.269,1.436 -0.299,0.522 -0.513,1.116 -0.644,1.781 -0.187,0.95 -0.161,1.937 0.079,2.958 0.24,1.022 0.611,2.028 1.114,3.022 0.503,0.991 1.095,1.939 1.778,2.845 0.683,0.906 1.37,1.706 2.059,2.404 0.69,0.697 1.34,1.268 1.951,1.714 0.61,0.444 1.104,0.705 1.483,0.779 0.261,0.051 0.491,0.068 0.691,0.054 0.199,-0.015 0.377,-0.093 0.533,-0.231 0.156,-0.139 0.293,-0.354 0.413,-0.649 0.118,-0.295 0.226,-0.69 0.324,-1.185 C 6.62,15.404 6.61,14.485 6.452,13.365 6.292,12.244 6.033,10.956 5.676,9.499 5.319,8.041 4.898,6.425 4.413,4.652 3.928,2.878 3.438,0.976 2.943,-1.056 1.791,-0.714 0.811,-0.362 0,0 m 17.693,-33.567 c 0.12,0.051 0.241,0.097 0.36,0.151 1.286,0.585 2.53,1.347 3.732,2.287 1.202,0.94 2.355,2.064 3.458,3.369 1.104,1.307 2.163,2.818 3.179,4.532 1.513,-2.193 3.207,-3.7 5.08,-4.522 1.874,-0.822 3.814,-1.037 5.82,-0.644 1.968,0.387 3.838,1.131 5.612,2.231 1.773,1.1 3.423,2.476 4.952,4.13 1.53,1.653 2.926,3.552 4.189,5.696 1.264,2.142 2.377,4.445 3.341,6.907 0.963,2.464 1.764,5.053 2.4,7.77 0.637,2.716 1.095,5.482 1.373,8.298 0.279,2.815 0.364,5.639 0.253,8.473 -0.11,2.834 -0.43,5.599 -0.96,8.296 -0.354,1.798 -0.917,3.474 -1.689,5.027 -0.772,1.553 -1.721,2.869 -2.846,3.946 -1.126,1.079 -2.419,1.859 -3.881,2.344 -1.462,0.484 -3.066,0.554 -4.812,0.211 -1.967,-0.387 -3.509,-1.13 -4.626,-2.229 -1.117,-1.1 -1.67,-2.54 -1.657,-4.324 1.318,-0.986 2.448,-1.903 3.391,-2.744 0.944,-0.843 1.742,-1.684 2.395,-2.524 0.651,-0.84 1.179,-1.714 1.58,-2.622 0.402,-0.909 0.713,-1.925 0.934,-3.044 0.389,-1.98 0.634,-3.985 0.736,-6.015 0.101,-2.032 0.083,-4.037 -0.055,-6.02 -0.138,-1.982 -0.38,-3.915 -0.727,-5.796 -0.347,-1.882 -0.778,-3.664 -1.292,-5.348 -0.515,-1.684 -1.098,-3.241 -1.75,-4.668 -0.653,-1.428 -1.354,-2.678 -2.103,-3.752 -0.749,-1.075 -1.528,-1.945 -2.337,-2.612 -0.81,-0.667 -1.631,-1.082 -2.464,-1.245 -0.496,-0.097 -0.968,-0.065 -1.419,0.096 -0.452,0.162 -0.88,0.43 -1.284,0.804 -0.405,0.374 -0.789,0.848 -1.153,1.427 -0.364,0.578 -0.711,1.227 -1.042,1.947 0.98,2.304 1.918,4.708 2.812,7.211 0.895,2.503 1.641,5.017 2.241,7.544 0.599,2.527 0.995,5.017 1.189,7.47 0.193,2.455 0.072,4.795 -0.366,7.023 -0.174,0.885 -0.468,1.644 -0.883,2.272 -0.414,0.629 -0.918,1.13 -1.512,1.499 -0.593,0.371 -1.269,0.611 -2.028,0.718 -0.758,0.107 -1.567,0.078 -2.426,-0.091 C 32.483,19.73 31.622,19.313 30.823,18.663 30.024,18.012 29.289,17.174 28.619,16.149 27.947,15.124 27.346,13.934 26.814,12.577 26.283,11.222 25.829,9.749 25.452,8.158 25.075,6.568 24.783,4.888 24.577,3.114 24.371,1.343 24.254,-0.477 24.229,-2.342 c -0.026,-1.866 0.041,-3.751 0.199,-5.655 0.157,-1.904 0.418,-3.781 0.782,-5.632 -0.568,-1.234 -1.126,-2.355 -1.672,-3.362 -0.547,-1.008 -1.104,-1.886 -1.674,-2.634 -0.57,-0.748 -1.16,-1.354 -1.773,-1.82 -0.612,-0.465 -1.269,-0.767 -1.972,-0.905 -0.665,-0.13 -1.262,-0.136 -1.793,-0.018 -0.53,0.119 -0.995,0.332 -1.393,0.64 -0.398,0.307 -0.728,0.692 -0.988,1.156 -0.26,0.463 -0.445,0.974 -0.555,1.535 -0.131,0.664 -0.223,1.353 -0.275,2.067 -0.052,0.713 -0.056,1.491 -0.012,2.332 0.045,0.841 0.137,1.762 0.279,2.764 0.141,1.002 0.342,2.117 0.601,3.346 0.78,3.672 1.541,6.995 2.283,9.969 0.741,2.974 1.375,5.669 1.901,8.086 0.526,2.418 0.892,4.587 1.097,6.509 0.204,1.92 0.152,3.663 -0.155,5.228 -0.338,1.719 -0.846,3.131 -1.524,4.236 -0.677,1.105 -1.502,1.944 -2.475,2.518 -0.972,0.573 -2.078,0.91 -3.317,1.012 C 10.555,29.132 9.206,29.039 7.746,28.752 6.56,28.519 5.307,28.091 3.988,27.465 2.669,26.84 1.339,26.062 0,25.129 -1.341,24.194 -2.665,23.13 -3.972,21.932 c -1.308,-1.198 -2.536,-2.477 -3.683,-3.84 -1.148,-1.362 -2.191,-2.787 -3.13,-4.279 -0.939,-1.49 -1.715,-3 -2.329,-4.527 -0.614,-1.527 -1.032,-3.051 -1.255,-4.569 -0.223,-1.52 -0.194,-2.99 0.085,-4.409 0.338,-1.72 0.994,-3.202 1.971,-4.445 0.974,-1.243 2.163,-2.24 3.563,-2.993 1.4,-0.754 2.96,-1.25 4.678,-1.486 1.719,-0.238 3.497,-0.209 5.335,0.084 -0.442,-1.751 -0.785,-3.433 -1.032,-5.043 -0.246,-1.613 -0.408,-3.109 -0.489,-4.49 -0.081,-1.384 -0.092,-2.635 -0.035,-3.753 0.057,-1.119 0.162,-2.062 0.313,-2.831 0.172,-0.878 0.391,-1.705 0.648,-2.487 0.025,-0.075 0.049,-0.152 0.075,-0.227 0.273,-0.791 0.587,-1.534 0.948,-2.226 0.281,-0.536 0.6,-1.022 0.938,-1.482 0.563,-0.767 1.196,-1.441 1.917,-1.995 1.156,-0.889 2.525,-1.483 4.106,-1.782 1.463,-0.275 3.123,-0.24 4.962,0.079 0.148,0.026 0.288,0.04 0.439,0.07 1.253,0.246 2.465,0.628 3.64,1.132" /></g><g
           transform="translate(314.4717,109.5913)"
           id="g64"><path
             id="path66"
             style="fill:#ffffff;fill-opacity:1;fill-rule:nonzero;stroke:none"
             d="M 0,0 C 0.102,1.102 0.273,2.036 0.516,2.8 0.758,3.566 1.037,4.158 1.353,4.58 1.669,5 1.965,5.237 2.238,5.291 2.72,5.386 3.153,5.229 3.538,4.825 3.922,4.42 4.196,3.794 4.363,2.948 4.48,2.348 4.525,1.742 4.498,1.127 4.47,0.512 4.304,-0.088 4,-0.675 3.695,-1.263 3.231,-1.825 2.605,-2.36 1.98,-2.896 1.126,-3.372 0.044,-3.787 -0.087,-2.366 -0.102,-1.103 0,0 m -78.272,-29.057 c -0.261,-0.464 -0.558,-0.884 -0.889,-1.26 -0.332,-0.378 -0.699,-0.696 -1.102,-0.957 -0.401,-0.263 -0.843,-0.44 -1.326,-0.536 -0.363,-0.071 -0.735,-0.063 -1.11,0.025 -0.376,0.089 -0.739,0.298 -1.088,0.629 -0.349,0.33 -0.669,0.806 -0.96,1.426 -0.291,0.619 -0.532,1.417 -0.725,2.394 -0.215,1.094 -0.328,2.219 -0.339,3.374 -0.01,1.155 0.072,2.305 0.247,3.449 0.174,1.143 0.434,2.261 0.782,3.351 0.347,1.088 0.767,2.116 1.262,3.079 0.495,0.963 1.059,1.842 1.695,2.637 0.635,0.795 1.325,1.468 2.068,2.02 -0.261,-0.876 -0.464,-1.804 -0.61,-2.779 -0.147,-0.976 -0.243,-1.949 -0.289,-2.919 -0.046,-0.97 -0.04,-1.913 0.018,-2.827 0.058,-0.917 0.164,-1.764 0.318,-2.547 0.123,-0.626 0.276,-1.268 0.46,-1.928 0.184,-0.662 0.392,-1.308 0.625,-1.939 0.232,-0.631 0.484,-1.227 0.757,-1.788 0.273,-0.563 0.565,-1.051 0.876,-1.463 -0.186,-0.497 -0.411,-0.977 -0.67,-1.441 m -84.933,-3.023 c 0.101,1.102 0.272,2.036 0.515,2.8 0.242,0.766 0.521,1.359 0.837,1.78 0.317,0.42 0.612,0.658 0.886,0.711 0.482,0.095 0.915,-0.061 1.299,-0.465 0.384,-0.406 0.659,-1.032 0.826,-1.878 0.117,-0.6 0.162,-1.206 0.134,-1.821 -0.028,-0.615 -0.194,-1.215 -0.498,-1.802 -0.304,-0.588 -0.769,-1.15 -1.394,-1.686 -0.625,-0.535 -1.48,-1.011 -2.562,-1.426 -0.13,1.421 -0.145,2.685 -0.043,3.787 M 22.809,-7.605 c 0.511,1.149 0.874,2.229 1.088,3.238 0.214,1.01 0.249,1.886 0.102,2.629 -0.061,0.313 -0.191,0.613 -0.389,0.899 -0.198,0.284 -0.452,0.522 -0.759,0.713 -0.309,0.189 -0.667,0.329 -1.078,0.417 -0.409,0.088 -0.857,0.092 -1.34,0.01 -0.067,-0.164 -0.141,-0.322 -0.209,-0.485 -0.751,-1.784 -1.639,-3.462 -2.677,-5.025 -1.134,-1.705 -2.353,-3.213 -3.657,-4.525 -1.306,-1.312 -2.663,-2.393 -4.072,-3.246 -1.409,-0.853 -2.791,-1.411 -4.145,-1.678 -0.782,-0.153 -1.448,-0.156 -1.999,-0.007 -0.55,0.15 -1.012,0.431 -1.384,0.845 -0.372,0.413 -0.682,0.959 -0.93,1.634 -0.248,0.675 -0.46,1.462 -0.636,2.36 2.613,1.164 4.775,2.405 6.484,3.722 1.71,1.317 3.034,2.707 3.971,4.17 0.937,1.463 1.52,2.985 1.752,4.566 0.23,1.58 0.18,3.212 -0.151,4.894 -0.55,2.801 -1.694,4.731 -3.431,5.79 C 7.611,14.375 5.361,14.633 2.6,14.09 1.296,13.834 0.021,13.248 -1.227,12.333 -2.474,11.418 -3.638,10.262 -4.716,8.866 -5.796,7.47 -6.766,5.882 -7.627,4.103 c -0.86,-1.78 -1.55,-3.661 -2.067,-5.644 -0.517,-1.982 -0.834,-4.017 -0.952,-6.104 -0.053,-0.938 -0.046,-1.867 0.005,-2.791 -0.243,-0.453 -0.486,-0.894 -0.729,-1.319 -1.002,-1.754 -1.942,-3.24 -2.818,-4.462 -0.875,-1.221 -1.658,-2.166 -2.345,-2.835 -0.688,-0.67 -1.213,-1.041 -1.577,-1.114 -0.366,-0.071 -0.661,-0.037 -0.883,0.102 -0.224,0.139 -0.379,0.43 -0.466,0.872 -0.067,0.339 -0.075,0.815 -0.026,1.427 0.048,0.611 0.131,1.307 0.249,2.089 0.117,0.78 0.263,1.618 0.44,2.511 0.176,0.894 0.353,1.782 0.531,2.664 0.179,0.88 0.358,1.726 0.536,2.54 0.179,0.813 0.328,1.536 0.447,2.169 0.396,1.835 0.638,3.481 0.725,4.932 0.087,1.451 0.028,2.698 -0.176,3.741 -0.155,0.782 -0.413,1.509 -0.775,2.182 -0.362,0.674 -0.821,1.235 -1.377,1.688 -0.555,0.452 -1.208,0.775 -1.956,0.966 -0.747,0.191 -1.585,0.196 -2.509,0.014 -0.874,-0.172 -1.766,-0.588 -2.678,-1.248 -0.913,-0.659 -1.86,-1.627 -2.839,-2.901 -0.982,-1.276 -1.996,-2.896 -3.044,-4.861 -1.048,-1.967 -2.152,-4.341 -3.309,-7.126 0.293,1.059 0.5,1.983 0.622,2.771 0.123,0.789 0.191,1.496 0.202,2.121 0.014,0.624 -0.018,1.196 -0.092,1.717 -0.075,0.52 -0.165,1.04 -0.267,1.561 -0.131,0.664 -0.357,1.263 -0.678,1.795 -0.321,0.532 -0.722,0.971 -1.203,1.316 -0.48,0.345 -1.037,0.581 -1.671,0.707 -0.633,0.126 -1.328,0.114 -2.084,-0.035 -0.873,-0.171 -1.754,-0.523 -2.644,-1.056 -0.89,-0.535 -1.788,-1.369 -2.694,-2.509 -0.906,-1.139 -1.824,-2.632 -2.752,-4.479 -0.93,-1.847 -1.876,-4.178 -2.838,-6.992 0.274,1.151 0.484,2.202 0.628,3.156 0.143,0.957 0.237,1.825 0.28,2.604 0.043,0.78 0.044,1.48 0.003,2.102 -0.041,0.621 -0.111,1.178 -0.207,1.673 -0.239,1.213 -0.692,2.02 -1.36,2.424 -0.668,0.403 -1.581,0.489 -2.741,0.262 -0.821,-0.162 -1.644,-0.483 -2.471,-0.962 -0.825,-0.481 -1.606,-1.067 -2.342,-1.76 -0.738,-0.693 -1.414,-1.466 -2.032,-2.318 -0.617,-0.852 -1.131,-1.728 -1.543,-2.627 -0.412,-0.9 -0.703,-1.796 -0.873,-2.689 -0.169,-0.892 -0.176,-1.736 -0.02,-2.531 0.156,-0.795 0.373,-1.618 0.648,-2.471 0.255,-0.785 0.602,-1.494 1.025,-2.142 -0.804,-1.983 -1.647,-3.533 -2.531,-4.598 -1.001,-1.205 -2.083,-1.922 -3.242,-2.15 -0.403,-0.079 -0.752,-0.08 -1.045,-0.002 -0.292,0.078 -0.515,0.162 -0.669,0.254 0.158,0.789 0.296,1.625 0.421,2.509 0.124,0.882 0.231,1.784 0.322,2.702 0.09,0.917 0.159,1.838 0.208,2.76 0.048,0.923 0.075,1.818 0.082,2.685 0.005,0.867 -0.022,1.691 -0.08,2.472 -0.059,0.779 -0.152,1.489 -0.277,2.128 -0.154,0.781 -0.396,1.48 -0.727,2.099 -0.331,0.618 -0.746,1.126 -1.243,1.522 -0.498,0.396 -1.079,0.668 -1.744,0.814 -0.665,0.147 -1.408,0.14 -2.228,-0.021 -0.77,-0.152 -1.448,-0.496 -2.041,-1.032 -0.591,-0.536 -1.1,-1.203 -1.524,-2.003 -0.143,0.662 -0.41,1.188 -0.796,1.578 -0.389,0.39 -0.838,0.678 -1.348,0.862 -0.51,0.184 -1.053,0.28 -1.63,0.288 -0.577,0.009 -1.126,-0.037 -1.647,-0.14 -1.407,-0.276 -2.75,-0.866 -4.027,-1.766 -1.277,-0.902 -2.437,-2.04 -3.48,-3.413 -1.042,-1.377 -1.954,-2.947 -2.738,-4.711 -0.783,-1.764 -1.389,-3.656 -1.818,-5.675 -0.429,-2.02 -0.664,-4.127 -0.705,-6.32 -0.003,-0.142 0.004,-0.284 0.003,-0.426 -0.258,-0.473 -0.502,-0.958 -0.779,-1.411 -1.004,-1.64 -2.068,-3.083 -3.189,-4.331 -1.121,-1.249 -2.276,-2.275 -3.465,-3.076 -1.189,-0.802 -2.343,-1.314 -3.464,-1.535 -0.782,-0.153 -1.468,-0.17 -2.06,-0.049 -0.593,0.121 -1.11,0.394 -1.552,0.821 -0.443,0.428 -0.819,1.016 -1.129,1.768 -0.31,0.75 -0.573,1.674 -0.788,2.768 -0.396,2.02 -0.602,3.874 -0.616,5.562 -0.015,1.689 0.088,3.15 0.306,4.384 0.217,1.234 0.515,2.209 0.896,2.927 0.38,0.717 0.759,1.113 1.137,1.188 0.247,0.048 0.509,-0.043 0.784,-0.272 0.274,-0.231 0.469,-0.633 0.582,-1.205 0.102,-0.521 0.178,-1.232 0.225,-2.129 0.047,-0.896 0.036,-1.921 -0.036,-3.072 0.421,-0.417 0.928,-0.707 1.521,-0.868 0.593,-0.161 1.333,-0.155 2.22,0.02 0.963,0.19 1.843,0.613 2.641,1.271 0.798,0.658 1.461,1.467 1.99,2.43 0.527,0.963 0.889,2.045 1.085,3.248 0.198,1.203 0.17,2.443 -0.081,3.719 -0.24,1.225 -0.625,2.285 -1.153,3.184 -0.528,0.898 -1.2,1.612 -2.015,2.141 -0.814,0.532 -1.764,0.872 -2.849,1.024 -1.085,0.151 -2.313,0.093 -3.681,-0.176 -1.42,-0.279 -2.8,-0.882 -4.14,-1.809 -1.34,-0.925 -2.583,-2.09 -3.729,-3.494 -1.145,-1.401 -2.162,-2.992 -3.05,-4.77 -0.889,-1.779 -1.597,-3.663 -2.126,-5.655 -0.529,-1.992 -0.853,-4.041 -0.973,-6.149 -0.055,-0.953 -0.048,-1.899 0.004,-2.842 -0.054,-0.108 -0.106,-0.227 -0.162,-0.335 -0.815,-1.567 -1.628,-2.938 -2.439,-4.113 -0.811,-1.175 -1.597,-2.117 -2.358,-2.827 -0.759,-0.712 -1.453,-1.128 -2.078,-1.251 -0.365,-0.071 -0.662,-0.035 -0.893,0.107 -0.232,0.146 -0.391,0.438 -0.478,0.881 -0.049,0.247 -0.077,0.682 -0.084,1.304 -0.008,0.62 0.003,1.377 0.032,2.268 0.027,0.892 0.067,1.895 0.119,3.008 0.051,1.113 0.115,2.288 0.189,3.529 0.074,1.239 0.152,2.509 0.235,3.811 0.083,1.302 0.167,2.594 0.253,3.876 0.086,1.282 0.174,2.524 0.263,3.726 0.088,1.201 0.175,2.311 0.259,3.329 0.634,2.073 1.188,3.934 1.663,5.585 0.474,1.648 0.874,3.124 1.2,4.425 0.326,1.303 0.586,2.457 0.781,3.464 0.195,1.006 0.331,1.908 0.411,2.709 0.08,0.8 0.106,1.526 0.08,2.178 -0.027,0.65 -0.098,1.269 -0.213,1.856 -0.2,1.016 -0.501,1.86 -0.904,2.532 -0.403,0.672 -0.89,1.187 -1.461,1.55 -0.572,0.36 -1.224,0.578 -1.956,0.651 -0.731,0.071 -1.526,0.023 -2.386,-0.146 -1.577,-0.309 -3.02,-1.002 -4.331,-2.078 -1.311,-1.077 -2.42,-2.476 -3.326,-4.197 -0.907,-1.72 -1.578,-3.733 -2.011,-6.037 -0.433,-2.305 -0.56,-4.84 -0.383,-7.606 0.087,-1.404 0.155,-2.92 0.204,-4.548 0.05,-1.627 0.092,-3.27 0.127,-4.927 0.034,-1.659 0.057,-3.287 0.068,-4.89 0.01,-1.6 0.026,-3.076 0.048,-4.425 0.006,-0.582 -0.009,-1.321 -0.041,-2.22 -0.032,-0.866 -0.063,-1.823 -0.092,-2.856 -0.512,-0.998 -1.071,-1.961 -1.683,-2.883 -1.133,-1.705 -2.352,-3.213 -3.657,-4.525 -1.305,-1.312 -2.663,-2.394 -4.071,-3.246 -1.41,-0.853 -2.792,-1.411 -4.147,-1.678 -0.781,-0.153 -1.447,-0.156 -1.998,-0.007 -0.55,0.15 -1.011,0.431 -1.383,0.845 -0.373,0.414 -0.683,0.959 -0.931,1.634 -0.247,0.675 -0.459,1.462 -0.636,2.36 2.613,1.164 4.774,2.405 6.485,3.722 1.71,1.317 3.034,2.707 3.97,4.17 0.937,1.464 1.521,2.985 1.752,4.565 0.23,1.582 0.18,3.213 -0.15,4.895 -0.551,2.801 -1.695,4.731 -3.432,5.79 -1.738,1.058 -3.987,1.317 -6.749,0.774 -1.303,-0.256 -2.578,-0.843 -3.826,-1.757 -1.248,-0.915 -2.411,-2.071 -3.49,-3.467 -1.079,-1.396 -2.05,-2.984 -2.91,-4.763 -0.861,-1.78 -1.551,-3.661 -2.068,-5.644 -0.517,-1.982 -0.834,-4.017 -0.952,-6.104 -0.117,-2.086 0.023,-4.14 0.42,-6.158 0.425,-2.163 1.03,-4.037 1.815,-5.622 0.785,-1.585 1.763,-2.861 2.934,-3.828 1.172,-0.967 2.536,-1.61 4.094,-1.925 1.557,-0.317 3.313,-0.283 5.267,0.101 1.303,0.256 2.605,0.705 3.907,1.347 1.301,0.641 2.566,1.417 3.794,2.328 1.228,0.912 2.41,1.926 3.544,3.042 1.133,1.116 2.183,2.279 3.15,3.49 0.381,0.479 0.735,0.961 1.086,1.444 0.081,-0.891 0.187,-1.726 0.334,-2.473 0.205,-1.042 0.494,-1.926 0.866,-2.651 0.373,-0.726 0.86,-1.293 1.461,-1.702 0.602,-0.41 1.331,-0.663 2.19,-0.757 0.857,-0.096 1.865,-0.03 3.025,0.199 1.004,0.197 2.039,0.59 3.108,1.179 1.068,0.588 2.128,1.318 3.182,2.189 1.054,0.87 2.079,1.849 3.076,2.939 0.997,1.088 1.932,2.222 2.802,3.403 0.498,0.674 0.962,1.357 1.405,2.047 0.093,-0.214 0.18,-0.437 0.278,-0.642 0.759,-1.59 1.708,-2.871 2.846,-3.844 1.139,-0.975 2.474,-1.623 4.005,-1.943 1.533,-0.322 3.282,-0.289 5.249,0.098 1.211,0.237 2.421,0.675 3.629,1.311 1.208,0.637 2.383,1.405 3.526,2.307 1.141,0.901 2.239,1.909 3.292,3.022 1.053,1.114 2.03,2.274 2.929,3.478 0.444,0.594 0.864,1.189 1.262,1.789 0.272,-0.702 0.578,-1.358 0.932,-1.946 0.814,-1.356 1.771,-2.422 2.872,-3.202 1.099,-0.778 2.315,-1.283 3.647,-1.514 1.331,-0.233 2.707,-0.208 4.127,0.07 1.406,0.277 2.694,0.716 3.861,1.316 1.167,0.602 2.244,1.355 3.231,2.259 0.985,0.905 1.891,1.958 2.717,3.163 0.825,1.204 1.586,2.552 2.281,4.041 0.499,-0.199 1.002,-0.313 1.509,-0.342 0.506,-0.03 1.124,0.028 1.853,0.171 1.134,0.223 2.184,0.628 3.151,1.218 0.966,0.59 1.839,1.281 2.616,2.077 0.073,0.076 0.135,0.159 0.207,0.235 0.016,-0.09 0.027,-0.188 0.045,-0.277 0.261,-1.194 0.697,-2.295 1.309,-3.304 0.611,-1.011 1.347,-1.864 2.208,-2.56 0.861,-0.697 1.816,-1.196 2.862,-1.499 1.048,-0.3 2.131,-0.341 3.252,-0.12 0.456,0.089 0.84,0.181 1.153,0.277 0.313,0.095 0.579,0.204 0.798,0.328 0.219,0.125 0.409,0.275 0.572,0.449 0.161,0.173 0.321,0.377 0.478,0.611 -0.201,1.368 -0.368,2.698 -0.5,3.991 -0.132,1.293 -0.237,2.599 -0.314,3.917 -0.076,1.319 -0.134,2.68 -0.174,4.086 -0.04,1.407 -0.074,2.905 -0.101,4.497 0.568,1.235 1.099,2.269 1.592,3.104 0.492,0.835 0.934,1.51 1.327,2.027 0.391,0.516 0.737,0.893 1.036,1.128 0.3,0.233 0.54,0.369 0.723,0.405 0.325,0.065 0.581,0.039 0.765,-0.073 0.184,-0.112 0.311,-0.344 0.38,-0.696 0.038,-0.197 0.047,-0.466 0.026,-0.807 -0.02,-0.343 -0.057,-0.723 -0.11,-1.139 -0.054,-0.416 -0.119,-0.858 -0.196,-1.327 -0.077,-0.468 -0.151,-0.94 -0.219,-1.413 -0.165,-1.02 -0.311,-2.088 -0.437,-3.202 -0.125,-1.114 -0.213,-2.203 -0.261,-3.267 -0.048,-1.067 -0.054,-2.085 -0.018,-3.06 0.036,-0.974 0.13,-1.846 0.28,-2.613 0.262,-1.195 0.662,-2.175 1.198,-2.943 0.537,-0.766 1.189,-1.352 1.959,-1.755 0.769,-0.405 1.64,-0.635 2.613,-0.695 0.972,-0.059 2.018,0.022 3.139,0.242 0.417,0.082 0.777,0.179 1.08,0.292 0.302,0.115 0.567,0.245 0.796,0.391 0.227,0.146 0.427,0.317 0.598,0.514 0.171,0.196 0.336,0.411 0.493,0.644 -0.202,1.367 -0.365,2.699 -0.491,3.994 -0.126,1.295 -0.22,2.603 -0.284,3.923 -0.063,1.32 -0.11,2.685 -0.144,4.092 -0.033,1.407 -0.058,2.908 -0.073,4.503 0.569,1.234 1.137,2.304 1.704,3.207 0.567,0.902 1.099,1.65 1.599,2.241 0.499,0.593 0.939,1.041 1.319,1.346 0.379,0.303 0.661,0.474 0.843,0.51 0.639,0.126 1.021,-0.129 1.146,-0.768 0.056,-0.287 0.035,-0.799 -0.063,-1.535 -0.099,-0.738 -0.233,-1.606 -0.402,-2.607 -0.168,-1 -0.346,-2.093 -0.531,-3.281 -0.188,-1.186 -0.345,-2.378 -0.475,-3.574 -0.131,-1.196 -0.207,-2.358 -0.23,-3.485 -0.02,-1.129 0.055,-2.135 0.229,-3.02 0.216,-1.096 0.511,-2.029 0.886,-2.8 0.375,-0.772 0.862,-1.378 1.463,-1.814 0.599,-0.437 1.329,-0.705 2.187,-0.807 0.859,-0.102 1.882,-0.036 3.067,0.196 0.926,0.183 1.897,0.592 2.915,1.233 1.018,0.64 2.042,1.434 3.074,2.381 1.031,0.947 2.051,2.011 3.055,3.199 1.006,1.183 1.957,2.416 2.856,3.696 0.565,0.805 1.088,1.616 1.59,2.429 0.12,-0.279 0.238,-0.564 0.369,-0.827 0.785,-1.584 1.763,-2.86 2.933,-3.826 1.172,-0.969 2.537,-1.611 4.094,-1.926 1.557,-0.317 3.314,-0.283 5.268,0.101 1.303,0.256 2.605,0.704 3.906,1.347 1.302,0.641 2.566,1.416 3.796,2.328 1.227,0.912 2.408,1.926 3.542,3.042 1.134,1.116 2.185,2.279 3.151,3.49 0.367,0.462 0.708,0.927 1.047,1.393 0.552,0.757 1.08,1.519 1.558,2.287 0.771,1.24 1.413,2.436 1.925,3.585" /></g><g
           transform="translate(48.0122,147.5923)"
           id="g68"><path
             id="path70"
             style="fill:#ffffff;fill-opacity:1;fill-rule:nonzero;stroke:none"
             d="m 0,0 c 0.241,-0.175 0.408,-0.562 0.5,-1.159 0.097,-0.62 0.039,-1.397 -0.173,-2.33 -0.212,-0.933 -0.513,-2.01 -0.9,-3.231 -0.386,-1.22 -0.834,-2.574 -1.342,-4.061 -0.506,-1.488 -1.006,-3.094 -1.5,-4.821 -0.974,0.333 -1.793,0.673 -2.452,1.02 -0.66,0.347 -1.204,0.725 -1.631,1.131 -0.426,0.407 -0.752,0.845 -0.975,1.313 -0.222,0.466 -0.378,0.988 -0.467,1.562 -0.128,0.823 -0.067,1.652 0.184,2.488 0.145,0.482 0.339,0.953 0.56,1.417 0.161,0.338 0.332,0.675 0.534,1.004 0.479,0.778 1.032,1.51 1.658,2.197 0.626,0.686 1.254,1.288 1.882,1.808 0.629,0.518 1.219,0.939 1.769,1.262 0.55,0.321 0.989,0.508 1.315,0.559 0.188,0.029 0.346,0.024 0.497,0.01 C -0.329,0.151 -0.141,0.103 0,0 m 43.831,-18.427 c 0.189,0.975 0.451,1.925 0.787,2.848 0.335,0.924 0.73,1.791 1.187,2.6 0.457,0.811 0.972,1.547 1.544,2.207 0.572,0.66 1.188,1.214 1.845,1.662 -0.254,-0.742 -0.461,-1.531 -0.619,-2.364 -0.159,-0.832 -0.275,-1.664 -0.347,-2.494 -0.073,-0.831 -0.1,-1.641 -0.082,-2.428 0.019,-0.789 0.081,-1.521 0.187,-2.196 0.084,-0.542 0.194,-1.099 0.329,-1.672 0.135,-0.573 0.292,-1.134 0.47,-1.683 0.178,-0.55 0.374,-1.071 0.589,-1.562 0.216,-0.492 0.449,-0.921 0.702,-1.285 -0.176,-0.42 -0.384,-0.824 -0.624,-1.213 -0.24,-0.391 -0.508,-0.741 -0.806,-1.052 -0.298,-0.313 -0.624,-0.573 -0.977,-0.784 -0.354,-0.212 -0.74,-0.349 -1.157,-0.414 -0.315,-0.049 -0.633,-0.03 -0.953,0.059 -0.32,0.089 -0.623,0.281 -0.911,0.576 -0.288,0.296 -0.548,0.714 -0.776,1.256 -0.229,0.542 -0.408,1.235 -0.54,2.08 -0.147,0.947 -0.206,1.916 -0.176,2.907 0.031,0.992 0.14,1.976 0.328,2.952 m -61.642,8.444 c -0.011,-0.051 -0.016,-0.101 -0.027,-0.153 -0.256,-1.227 -0.298,-2.43 -0.114,-3.609 0.196,-1.258 0.608,-2.374 1.212,-3.361 0.111,-0.18 0.215,-0.364 0.338,-0.535 0.801,-1.11 1.794,-2.015 2.976,-2.714 1.182,-0.698 2.512,-1.182 3.991,-1.447 1.478,-0.267 3.011,-0.306 4.598,-0.116 -0.226,-1.073 -0.406,-2.065 -0.541,-2.976 -0.136,-0.909 -0.232,-1.758 -0.288,-2.546 -0.057,-0.788 -0.072,-1.52 -0.048,-2.198 0.025,-0.676 0.087,-1.331 0.184,-1.962 0.2,-1.285 0.569,-2.428 1.106,-3.428 0.536,-1.002 1.222,-1.828 2.056,-2.477 0.834,-0.649 1.802,-1.105 2.905,-1.366 1.103,-0.261 2.318,-0.289 3.649,-0.082 1.216,0.19 2.416,0.568 3.597,1.133 1.182,0.565 2.316,1.292 3.4,2.182 1.085,0.89 2.104,1.927 3.057,3.108 0.953,1.18 1.797,2.487 2.533,3.917 -0.069,-1.038 -0.136,-2.057 -0.199,-3.061 -0.063,-1.002 -0.134,-1.957 -0.212,-2.864 -0.079,-0.906 -0.169,-1.754 -0.271,-2.543 -0.101,-0.79 -0.225,-1.501 -0.369,-2.135 -2.386,-1.723 -4.426,-3.261 -6.12,-4.615 -1.693,-1.354 -3.068,-2.573 -4.123,-3.654 -1.056,-1.083 -1.805,-2.047 -2.25,-2.894 -0.445,-0.85 -0.612,-1.629 -0.502,-2.338 0.095,-0.609 0.3,-1.166 0.615,-1.671 0.316,-0.505 0.705,-0.952 1.17,-1.341 0.464,-0.391 0.981,-0.725 1.55,-1.006 0.569,-0.281 1.157,-0.501 1.765,-0.66 0.607,-0.159 1.214,-0.258 1.821,-0.297 0.605,-0.037 1.174,-0.016 1.703,0.067 1.082,0.168 2.107,0.482 3.075,0.937 0.967,0.457 1.871,1.021 2.714,1.696 0.841,0.673 1.622,1.44 2.341,2.302 0.721,0.863 1.375,1.79 1.966,2.782 0.59,0.992 1.115,2.033 1.574,3.119 0.46,1.088 0.852,2.187 1.175,3.3 1.107,0.969 2.244,2.061 3.412,3.275 1.166,1.214 2.299,2.485 3.397,3.81 1.098,1.324 2.128,2.674 3.092,4.048 0.3,0.426 0.562,0.842 0.835,1.262 0.203,-0.576 0.43,-1.121 0.699,-1.612 0.654,-1.191 1.439,-2.139 2.356,-2.845 0.918,-0.705 1.945,-1.18 3.079,-1.426 1.135,-0.243 2.316,-0.271 3.545,-0.079 1.217,0.189 2.336,0.522 3.359,0.999 1.022,0.477 1.971,1.086 2.849,1.828 0.877,0.742 1.69,1.616 2.439,2.623 0.75,1.005 1.449,2.135 2.096,3.39 0.421,-0.189 0.849,-0.304 1.283,-0.346 0.434,-0.042 0.966,-0.014 1.597,0.084 0.98,0.152 1.895,0.465 2.745,0.938 0.75,0.417 1.428,0.918 2.056,1.478 -0.005,-0.168 -0.015,-0.351 -0.016,-0.511 -0.002,-0.761 0.036,-1.403 0.117,-1.92 0.161,-1.038 0.378,-1.95 0.652,-2.738 0.272,-0.789 0.64,-1.431 1.104,-1.924 0.463,-0.493 1.044,-0.833 1.742,-1.018 0.699,-0.186 1.555,-0.2 2.569,-0.042 0.778,0.121 1.589,0.435 2.433,0.942 0.845,0.506 1.673,1.212 2.484,2.118 0.811,0.905 1.586,2.006 2.325,3.305 0.738,1.299 1.402,2.8 1.99,4.508 -0.02,-0.754 -0.022,-1.432 -0.003,-2.035 0.019,-0.603 0.066,-1.147 0.141,-1.631 0.14,-0.902 0.36,-1.626 0.659,-2.174 0.299,-0.549 0.674,-0.961 1.127,-1.236 0.453,-0.276 0.971,-0.435 1.555,-0.476 0.584,-0.042 1.23,-0.008 1.94,0.103 0.732,0.114 1.481,0.364 2.247,0.748 0.765,0.384 1.535,0.874 2.308,1.467 0.773,0.593 1.536,1.27 2.29,2.027 0.753,0.757 1.479,1.561 2.178,2.409 0.867,1.034 1.677,2.11 2.433,3.226 0.755,1.116 1.404,2.198 1.945,3.246 0.54,1.048 0.945,2.023 1.215,2.924 0.269,0.902 0.356,1.663 0.259,2.283 -0.049,0.315 -0.172,0.59 -0.37,0.826 -0.199,0.234 -0.445,0.427 -0.74,0.577 -0.294,0.15 -0.622,0.252 -0.982,0.306 -0.361,0.054 -0.721,0.052 -1.082,-0.004 -0.862,-1.727 -1.687,-3.232 -2.474,-4.515 -0.788,-1.281 -1.521,-2.352 -2.202,-3.208 -0.68,-0.856 -1.297,-1.508 -1.85,-1.959 -0.553,-0.449 -1.027,-0.705 -1.422,-0.766 -0.281,-0.044 -0.524,-0.009 -0.726,0.103 -0.202,0.113 -0.338,0.394 -0.408,0.846 -0.033,0.213 -0.015,0.574 0.056,1.082 0.071,0.507 0.178,1.103 0.319,1.789 0.141,0.686 0.308,1.436 0.498,2.251 0.191,0.815 0.387,1.644 0.591,2.489 0.203,0.846 0.399,1.679 0.589,2.499 0.19,0.82 0.352,1.575 0.487,2.266 0.151,0.739 0.269,1.386 0.356,1.942 0.087,0.557 0.144,1.054 0.175,1.49 0.03,0.437 0.038,0.831 0.023,1.181 -0.014,0.35 -0.045,0.683 -0.094,0.998 -0.111,0.71 -0.388,1.377 -0.831,2.001 -0.444,0.623 -1.005,1.151 -1.683,1.581 -0.68,0.432 -1.452,0.742 -2.318,0.93 C 83.775,2.432 82.857,2.45 81.889,2.299 81.37,2.219 80.86,2.029 80.358,1.732 79.855,1.436 79.465,1.034 79.186,0.528 c 0.153,-1.499 0.25,-2.956 0.291,-4.369 0.041,-1.413 0.027,-2.867 -0.04,-4.361 -0.067,-1.493 -0.19,-3.062 -0.367,-4.705 -0.177,-1.643 -0.413,-3.446 -0.707,-5.408 -0.294,-0.416 -0.626,-0.842 -0.996,-1.28 -0.37,-0.439 -0.752,-0.842 -1.144,-1.209 -0.393,-0.367 -0.778,-0.678 -1.154,-0.932 -0.376,-0.255 -0.71,-0.405 -1.003,-0.451 -0.485,-0.075 -0.862,0.03 -1.132,0.317 -0.269,0.287 -0.448,0.713 -0.536,1.276 -0.086,0.552 -0.107,1.337 -0.064,2.353 0.044,1.017 0.142,2.183 0.295,3.5 1.33,3.173 2.279,5.844 2.848,8.01 0.568,2.166 0.767,3.806 0.593,4.923 -0.081,0.517 -0.222,0.943 -0.424,1.274 C 75.445,-0.201 75.189,0.051 74.88,0.222 74.57,0.393 74.202,0.494 73.776,0.526 73.35,0.558 72.866,0.531 72.325,0.447 71.514,0.32 70.7,-0.007 69.882,-0.539 c -0.818,-0.531 -1.601,-1.19 -2.35,-1.976 -0.749,-0.786 -1.444,-1.659 -2.085,-2.618 -0.642,-0.96 -1.183,-1.933 -1.623,-2.919 -0.442,-0.987 -0.766,-1.94 -0.975,-2.862 -0.208,-0.921 -0.257,-1.742 -0.144,-2.463 0.108,-0.699 0.272,-1.398 0.49,-2.097 0.114,-0.364 0.27,-0.724 0.459,-1.08 -0.678,-1.413 -1.37,-2.524 -2.078,-3.309 -0.9,-1.001 -1.852,-1.578 -2.855,-1.735 -0.349,-0.054 -0.649,-0.043 -0.897,0.034 -0.248,0.076 -0.437,0.157 -0.566,0.241 0.161,0.671 0.31,1.383 0.447,2.138 0.136,0.754 0.259,1.523 0.367,2.308 0.109,0.785 0.2,1.572 0.273,2.362 0.073,0.791 0.127,1.558 0.162,2.302 0.034,0.744 0.039,1.453 0.015,2.123 -0.023,0.672 -0.078,1.284 -0.164,1.836 -0.106,0.676 -0.29,1.285 -0.553,1.827 -0.263,0.542 -0.602,0.992 -1.015,1.348 -0.414,0.357 -0.903,0.61 -1.468,0.759 -0.566,0.148 -1.204,0.168 -1.914,0.057 -0.665,-0.103 -1.261,-0.376 -1.785,-0.815 -0.527,-0.441 -0.986,-0.996 -1.377,-1.669 -0.101,0.574 -0.311,1.035 -0.631,1.383 -0.321,0.348 -0.696,0.61 -1.127,0.784 -0.431,0.176 -0.894,0.278 -1.389,0.305 -0.495,0.026 -0.967,0.004 -1.418,-0.066 -1.217,-0.19 -2.389,-0.649 -3.516,-1.379 -1.127,-0.729 -2.162,-1.667 -3.103,-2.811 -0.941,-1.145 -1.778,-2.462 -2.511,-3.949 -0.732,-1.486 -1.316,-3.09 -1.752,-4.808 -0.437,-1.718 -0.711,-3.518 -0.822,-5.4 -0.01,-0.161 -0.009,-0.323 -0.016,-0.484 -0.187,-0.345 -0.372,-0.706 -0.561,-1.035 -0.772,-1.344 -1.572,-2.598 -2.4,-3.767 -0.829,-1.167 -1.691,-2.265 -2.586,-3.294 -0.896,-1.027 -1.84,-2.028 -2.831,-3.002 0.139,0.957 0.268,2.018 0.387,3.185 0.118,1.167 0.22,2.293 0.305,3.38 0.037,0.652 0.081,1.459 0.134,2.418 0.052,0.962 0.108,2.032 0.167,3.212 0.058,1.181 0.118,2.446 0.179,3.795 0.061,1.347 0.121,2.745 0.179,4.191 0.058,1.446 0.115,2.912 0.172,4.399 0.057,1.486 0.106,2.953 0.145,4.402 0.502,1.371 0.925,2.586 1.269,3.642 0.343,1.058 0.612,2.003 0.805,2.835 0.193,0.833 0.316,1.584 0.368,2.256 0.051,0.671 0.029,1.313 -0.066,1.921 -0.068,0.44 -0.236,0.889 -0.504,1.35 -0.268,0.461 -0.608,0.901 -1.02,1.321 -0.411,0.421 -0.88,0.816 -1.405,1.183 -0.524,0.37 -1.08,0.676 -1.666,0.918 -0.586,0.244 -1.188,0.42 -1.804,0.525 -0.617,0.106 -1.219,0.114 -1.804,0.023 C 20.68,10.57 20.024,10.222 19.457,9.644 18.889,9.064 18.405,8.221 18.006,7.114 17.607,6.008 17.287,4.622 17.043,2.958 16.8,1.292 16.626,-0.687 16.521,-2.976 c -0.105,-2.291 -0.143,-4.901 -0.113,-7.835 0.029,-2.933 0.116,-6.23 0.259,-9.889 -0.571,-0.862 -1.21,-1.651 -1.918,-2.367 -0.707,-0.716 -1.441,-1.341 -2.201,-1.876 -0.759,-0.533 -1.534,-0.971 -2.323,-1.312 -0.789,-0.343 -1.556,-0.572 -2.3,-0.688 -0.665,-0.103 -1.23,0.013 -1.698,0.35 -0.469,0.336 -0.763,0.888 -0.882,1.655 -0.061,0.395 -0.094,0.808 -0.098,1.239 -0.003,0.433 0.043,0.974 0.137,1.624 0.095,0.649 0.256,1.453 0.482,2.411 0.225,0.96 0.538,2.163 0.935,3.609 0.769,2.774 1.426,5.157 1.97,7.146 0.544,1.989 0.994,3.68 1.348,5.074 0.355,1.395 0.629,2.545 0.822,3.452 0.193,0.908 0.326,1.67 0.397,2.287 0.071,0.617 0.097,1.14 0.076,1.57 C 11.393,3.904 11.349,4.338 11.28,4.778 11.096,5.96 10.683,6.897 10.088,7.64 9.737,8.079 9.338,8.467 8.843,8.752 8.497,8.953 8.112,9.11 7.697,9.233 6.517,9.583 5.064,9.627 3.33,9.357 2.81,9.276 2.267,9.154 1.704,8.992 1.158,8.834 0.593,8.641 0.007,8.407 -1.183,7.933 -2.402,7.331 -3.65,6.601 -4.898,5.869 -6.147,5.03 -7.396,4.086 -8.646,3.141 -9.832,2.12 -10.954,1.021 c -1.122,-1.097 -2.153,-2.253 -3.096,-3.467 -0.033,-0.042 -0.057,-0.086 -0.09,-0.128 -0.899,-1.174 -1.665,-2.37 -2.283,-3.592 -0.639,-1.265 -1.102,-2.538 -1.388,-3.817" /></g><g
           transform="translate(159.3828,165.8652)"
           id="g72"><path
             id="path74"
             style="fill:#ffffff;fill-opacity:1;fill-rule:nonzero;stroke:none"
             d="M 0,0 C -0.48,0.9 -1.087,1.663 -1.819,2.288 -2.551,2.912 -3.39,3.37 -4.335,3.662 -5.281,3.953 -6.301,4.014 -7.394,3.844 -8.307,3.702 -9.11,3.417 -9.806,2.992 c -0.696,-0.426 -1.263,-0.95 -1.703,-1.572 -0.44,-0.623 -0.746,-1.323 -0.92,-2.1 -0.174,-0.777 -0.194,-1.588 -0.062,-2.433 0.059,-0.383 0.163,-0.771 0.31,-1.163 0.148,-0.393 0.353,-0.766 0.616,-1.118 0.707,-0.166 1.305,-0.379 1.795,-0.637 0.491,-0.259 0.899,-0.543 1.225,-0.857 0.325,-0.313 0.573,-0.646 0.745,-1.001 0.17,-0.354 0.285,-0.723 0.344,-1.107 0.07,-0.45 -0.03,-0.991 -0.301,-1.622 -0.271,-0.631 -0.659,-1.288 -1.164,-1.973 -0.505,-0.684 -1.1,-1.368 -1.785,-2.052 -0.684,-0.683 -1.409,-1.304 -2.176,-1.862 -0.06,-0.506 -0.059,-0.956 0.002,-1.35 0.136,-0.879 0.515,-1.53 1.135,-1.954 0.62,-0.421 1.471,-0.549 2.552,-0.38 0.823,0.127 1.671,0.463 2.544,1.009 0.873,0.546 1.719,1.243 2.54,2.092 0.82,0.849 1.583,1.825 2.288,2.928 0.706,1.102 1.297,2.27 1.774,3.505 0.477,1.235 0.816,2.509 1.016,3.82 0.199,1.313 0.199,2.61 -0.001,3.895 C 0.804,-1.881 0.48,-0.901 0,0" /></g><g
           transform="translate(200.082,145.9277)"
           id="g76"><path
             id="path78"
             style="fill:#ffffff;fill-opacity:1;fill-rule:nonzero;stroke:none"
             d="M 0,0 C -0.063,1.226 -0.033,2.309 0.091,3.252 0.215,4.194 0.395,4.99 0.628,5.639 0.862,6.287 1.122,6.786 1.408,7.136 1.693,7.486 1.955,7.681 2.192,7.718 2.609,7.783 2.976,7.634 3.291,7.274 3.607,6.913 3.822,6.366 3.937,5.634 4.017,5.115 4.034,4.594 3.989,4.067 3.944,3.541 3.781,3.03 3.501,2.536 3.22,2.042 2.802,1.576 2.246,1.138 1.691,0.699 0.942,0.32 0,0 M 20.325,1.728 C 20.165,1.979 19.956,2.191 19.697,2.366 19.439,2.539 19.137,2.671 18.788,2.761 18.439,2.852 18.056,2.869 17.637,2.814 16.892,1.152 16.004,-0.392 14.973,-1.815 13.942,-3.24 12.845,-4.492 11.68,-5.574 10.515,-6.656 9.313,-7.538 8.075,-8.222 6.837,-8.905 5.632,-9.338 4.46,-9.52 3.784,-9.625 3.212,-9.605 2.745,-9.459 2.278,-9.312 1.892,-9.054 1.586,-8.686 1.28,-8.319 1.033,-7.84 0.844,-7.252 c -0.191,0.587 -0.346,1.27 -0.467,2.048 2.283,0.909 4.18,1.9 5.692,2.973 1.513,1.072 2.696,2.219 3.55,3.443 0.854,1.225 1.406,2.51 1.659,3.859 0.251,1.35 0.264,2.751 0.037,4.205 -0.377,2.423 -1.293,4.118 -2.748,5.086 C 7.112,15.33 5.19,15.628 2.802,15.256 1.675,15.081 0.561,14.622 -0.541,13.879 -1.645,13.136 -2.682,12.185 -3.655,11.022 -4.629,9.861 -5.516,8.53 -6.314,7.034 -7.115,5.535 -7.771,3.943 -8.281,2.261 c -0.512,-1.684 -0.853,-3.42 -1.025,-5.207 -0.08,-0.83 -0.106,-1.656 -0.09,-2.477 -0.357,-0.619 -0.717,-1.22 -1.083,-1.784 -0.549,-0.845 -1.1,-1.621 -1.654,-2.326 -0.555,-0.703 -1.083,-1.31 -1.586,-1.822 -0.504,-0.51 -0.971,-0.918 -1.403,-1.222 -0.431,-0.305 -0.812,-0.481 -1.138,-0.531 -0.462,-0.073 -0.799,0.033 -1.01,0.317 -0.211,0.285 -0.356,0.675 -0.433,1.171 -0.067,0.429 -0.067,0.965 10e-4,1.61 0.065,0.645 0.178,1.356 0.334,2.13 0.157,0.775 0.352,1.592 0.588,2.454 0.235,0.862 0.488,1.718 0.759,2.569 0.39,1.203 0.691,2.254 0.904,3.152 0.212,0.899 0.263,1.698 0.155,2.397 -0.065,0.417 -0.188,0.785 -0.371,1.102 -0.183,0.318 -0.478,0.599 -0.884,0.841 -0.407,0.242 -0.954,0.455 -1.639,0.636 -0.687,0.182 -1.56,0.339 -2.62,0.476 -0.624,0.075 -1.252,0.18 -1.884,0.312 -0.633,0.133 -1.156,0.271 -1.57,0.414 0.34,0.849 0.815,1.598 1.424,2.247 0.609,0.648 1.295,1.263 2.059,1.844 0.069,0.45 0.064,0.922 -0.013,1.418 -0.073,0.473 -0.234,0.878 -0.483,1.214 -0.249,0.337 -0.565,0.605 -0.948,0.805 -0.383,0.201 -0.827,0.33 -1.333,0.391 -0.506,0.059 -1.052,0.043 -1.637,-0.048 -0.654,-0.102 -1.353,-0.393 -2.098,-0.872 -0.745,-0.48 -1.485,-1.082 -2.22,-1.809 -0.736,-0.725 -1.434,-1.542 -2.095,-2.446 -0.662,-0.906 -1.229,-1.839 -1.702,-2.803 -0.473,-0.962 -0.827,-1.917 -1.061,-2.865 -0.233,-0.948 -0.286,-1.828 -0.16,-2.64 0.104,-0.665 0.295,-1.21 0.575,-1.633 0.279,-0.423 0.584,-0.772 0.915,-1.044 -0.183,-0.754 -0.385,-1.453 -0.609,-2.094 -0.223,-0.64 -0.469,-1.264 -0.738,-1.871 -0.269,-0.608 -0.555,-1.221 -0.857,-1.839 -0.302,-0.618 -0.628,-1.284 -0.979,-1.997 -0.144,-0.264 -0.229,-0.55 -0.256,-0.853 -0.028,-0.305 -0.02,-0.599 0.024,-0.88 0.056,-0.361 0.171,-0.695 0.346,-1.002 0.175,-0.308 0.4,-0.567 0.675,-0.778 0.276,-0.211 0.596,-0.362 0.963,-0.456 0.367,-0.093 0.769,-0.106 1.209,-0.037 0.475,0.732 0.909,1.458 1.306,2.177 0.396,0.719 0.774,1.478 1.135,2.272 0.361,0.794 0.717,1.644 1.067,2.546 0.35,0.903 0.715,1.91 1.096,3.019 0.816,-0.196 1.432,-0.394 1.851,-0.594 0.418,-0.201 0.659,-0.51 0.724,-0.927 0.045,-0.293 0.023,-0.709 -0.065,-1.248 -0.09,-0.539 -0.208,-1.154 -0.354,-1.847 -0.146,-0.692 -0.306,-1.444 -0.479,-2.256 -0.174,-0.812 -0.323,-1.64 -0.445,-2.484 -0.122,-0.845 -0.204,-1.689 -0.246,-2.532 -0.042,-0.843 -0.004,-1.648 0.115,-2.414 0.307,-1.972 1.104,-3.345 2.391,-4.12 1.286,-0.776 2.983,-0.999 5.09,-0.671 0.801,0.125 1.643,0.44 2.528,0.947 0.885,0.508 1.78,1.143 2.69,1.909 0.908,0.763 1.808,1.631 2.702,2.601 0.893,0.97 1.737,1.982 2.532,3.034 0.429,0.568 0.835,1.14 1.228,1.714 0.089,-0.23 0.175,-0.465 0.273,-0.683 0.62,-1.388 1.416,-2.515 2.389,-3.386 0.972,-0.871 2.121,-1.466 3.447,-1.792 1.325,-0.323 2.834,-0.354 4.524,-0.091 1.127,0.175 2.26,0.516 3.399,1.022 1.138,0.506 2.252,1.129 3.336,1.87 1.086,0.74 2.133,1.57 3.144,2.488 1.012,0.92 1.952,1.883 2.822,2.891 0.872,1.005 1.659,2.029 2.363,3.067 0.704,1.039 1.295,2.042 1.772,3.011 0.479,0.97 0.826,1.884 1.045,2.742 0.219,0.86 0.278,1.612 0.178,2.254 -0.042,0.27 -0.144,0.532 -0.304,0.784" /></g></g></g></g></svg>